<svg width="17" height="17" viewBox="0 0 17 17" fill="none" xmlns="http://www.w3.org/2000/svg">
<path d="M15.7945 8.36115H1.05297C0.472421 8.36115 0 8.83357 0 9.41411C0 9.99466 0.472421 10.4671 1.05297 10.4671H15.7945C16.3751 10.4671 16.8475 9.99466 16.8475 9.41411C16.8475 8.83357 16.3751 8.36115 15.7945 8.36115Z" fill="#FE8A71"/>
<path d="M15.8913 9.77845C15.7011 9.72511 15.5101 9.8332 15.4575 10.0199L15.4301 10.1161H1.41788L1.38982 10.0199C1.33717 9.8332 1.14484 9.72652 0.955992 9.77845C0.769255 9.83179 0.661852 10.0263 0.715225 10.2123L1.68254 13.5986C1.98227 14.6481 2.95384 15.3809 4.04471 15.3809H12.8019C13.8935 15.3809 14.8643 14.6481 15.1641 13.5986L16.1314 10.2123C16.1854 10.0262 16.0773 9.83179 15.8913 9.77845ZM4.0454 13.977C3.57788 13.977 3.16091 13.6632 3.03314 13.2132L2.57756 11.6169C2.52422 11.4302 2.63232 11.2364 2.81833 11.1831C3.00645 11.1297 3.19951 11.2385 3.25215 11.4246L3.70773 13.0209C3.75126 13.1704 3.88953 13.2757 4.04537 13.2757C4.23911 13.2757 4.39637 13.4329 4.39637 13.6267C4.3964 13.8204 4.23915 13.977 4.0454 13.977Z" fill="#FE8A71"/>
<path d="M4.71945 14.7156C4.54608 14.6307 4.33617 14.6988 4.24842 14.8729L3.54645 16.2769C3.4601 16.4502 3.53029 16.6608 3.7037 16.7479C3.75494 16.7732 3.80831 16.7851 3.86096 16.7851C3.98942 16.7851 4.11298 16.7142 4.17474 16.5907L4.87671 15.1867C4.96305 15.0133 4.89283 14.8027 4.71945 14.7156Z" fill="#FE8A71"/>
<path d="M13.301 16.2775L12.5991 14.8735C12.512 14.6994 12.3014 14.6299 12.128 14.7162C11.9546 14.8033 11.8844 15.0139 11.9708 15.1873L12.6727 16.5913C12.7345 16.7141 12.858 16.785 12.9865 16.785C13.0392 16.785 13.0925 16.7731 13.1438 16.7485C13.3172 16.6614 13.3874 16.4509 13.301 16.2775Z" fill="#FE8A71"/>
<path d="M14.0994 0C13.7414 0 13.4044 0.139683 13.151 0.393119L12.037 1.50716C11.9001 1.64405 11.9001 1.86658 12.037 2.00347C12.1739 2.14036 12.3964 2.14036 12.5333 2.00347L13.6473 0.89012C13.7673 0.769391 13.9281 0.702692 14.1029 0.702692C14.4553 0.702692 14.7417 0.989099 14.7417 1.34148V8.71226C14.7417 8.90601 14.8989 9.06326 15.0927 9.06326C15.2864 9.06326 15.4437 8.90601 15.4444 8.71157V1.34079C15.4444 0.601607 14.8435 0 14.0994 0Z" fill="#FE8A71"/>
<path d="M12.8841 1.85822L12.1821 1.15625C12.1021 1.07623 11.9904 1.03901 11.8767 1.05796L10.1218 1.34579C9.99263 1.36685 9.88661 1.45809 9.84522 1.58165C9.80379 1.70521 9.83538 1.84279 9.92666 1.93614L12.0326 4.10525C12.0993 4.17475 12.1912 4.21197 12.2839 4.21197C12.3169 4.21197 12.3506 4.20706 12.3836 4.19722C12.5085 4.16073 12.6033 4.05754 12.6285 3.92977L12.9795 2.17483C13.0027 2.06039 12.9669 1.94173 12.8841 1.85822Z" fill="#FE8A71"/>
<path d="M8.32047 4.2526C8.18359 4.11571 7.96105 4.11571 7.82416 4.2526L7.1222 4.95457C6.98531 5.09145 6.98531 5.31399 7.1222 5.45088C7.191 5.51896 7.28083 5.55338 7.3707 5.55338C7.46056 5.55338 7.55039 5.51899 7.61851 5.45088L8.32047 4.74891C8.45736 4.61199 8.45736 4.38948 8.32047 4.2526Z" fill="#FE8A71"/>
<path d="M9.72453 5.65644C9.58764 5.51955 9.3651 5.51955 9.22822 5.65644L8.52625 6.3584C8.38936 6.49529 8.38936 6.71783 8.52625 6.85471C8.59505 6.9228 8.68488 6.95721 8.77475 6.95721C8.86461 6.95721 8.95444 6.92283 9.02256 6.85471L9.72453 6.15275C9.86141 6.01586 9.86141 5.79332 9.72453 5.65644Z" fill="#FE8A71"/>
<path d="M10.4264 3.55051C10.2895 3.41362 10.067 3.41362 9.93012 3.55051L9.22815 4.25248C9.09127 4.38936 9.09127 4.6119 9.22815 4.74879C9.29696 4.81687 9.38679 4.85129 9.47665 4.85129C9.56652 4.85129 9.65635 4.8169 9.72446 4.74879L10.4264 4.04682C10.5633 3.90993 10.5633 3.6874 10.4264 3.55051Z" fill="#FE8A71"/>
</svg>
