<svg width="32" height="32" viewBox="0 0 32 32" fill="none" xmlns="http://www.w3.org/2000/svg">
<path d="M29.7144 9.14337V31.0627H15.125L16 9.14337H29.7144Z" fill="#F0F7FF"/>
<path d="M22.8568 9.14337H29.7143V31.0627H22.8568V9.14337Z" fill="#D7E9FC"/>
<path d="M19.7679 12.9109H21.6429V14.7859H19.7679V12.9109Z" fill="#00B3FF"/>
<path d="M24.0714 12.9109H25.9464V14.7859H24.0714V12.9109Z" fill="#3A80E8"/>
<path d="M19.7679 17.2141H21.6429V19.0891H19.7679V17.2141Z" fill="#00B3FF"/>
<path d="M24.0714 17.2141H25.9464V19.0891H24.0714V17.2141Z" fill="#3A80E8"/>
<path d="M19.7679 21.5175H21.6429V23.3925H19.7679V21.5175Z" fill="#00B3FF"/>
<path d="M24.0714 21.5175H25.9464V23.3925H24.0714V21.5175Z" fill="#3A80E8"/>
<path d="M4.57129 0H13.7144V6.47625H4.57129V0Z" fill="#F0F7FF"/>
<path d="M9.14319 0H13.7144V6.47625H9.14319V0Z" fill="#D7E9FC"/>
<path d="M19.7679 25.8217H21.6429V27.6967H19.7679V25.8217Z" fill="#00B3FF"/>
<path d="M24.0714 25.8217H25.9464V27.6967H24.0714V25.8217Z" fill="#3A80E8"/>
<path d="M16 4.57169V31.0629H2.28564V6.85731L9.14314 5.71419L16 4.57169Z" fill="#00B3FF"/>
<path d="M16.0001 4.57169V31.0629H9.14319V5.71419L16.0001 4.57169Z" fill="#3A80E8"/>
<path d="M10.3571 8.60754H12.2321V10.4825H10.3571V8.60754Z" fill="#00B3FF"/>
<path d="M10.3571 12.9109H12.2321V14.7859H10.3571V12.9109Z" fill="#00B3FF"/>
<path d="M6.05359 12.9109H7.92859V14.7859H6.05359V12.9109Z" fill="#00F6FE"/>
<path d="M10.3571 17.2141H12.2321V19.0891H10.3571V17.2141Z" fill="#00B3FF"/>
<path d="M6.05359 17.2141H7.92859V19.0891H6.05359V17.2141Z" fill="#00F6FE"/>
<path d="M10.3571 21.5175H12.2321V23.3925H10.3571V21.5175Z" fill="#00B3FF"/>
<path d="M6.05359 21.5175H7.92859V23.3925H6.05359V21.5175Z" fill="#00F6FE"/>
<path d="M6.05371 25.8217H12.2318V31.0627H6.05371V25.8217Z" fill="#00F6FE"/>
<path d="M9.14319 25.8217H12.2319V31.0627H9.14319V25.8217Z" fill="#00B3FF"/>
<path d="M0 30.125H32V32H0V30.125Z" fill="#9DD867"/>
<path d="M16 30.125H32V32H16V30.125Z" fill="#77C080"/>
</svg>
