<svg width="50" height="50" viewBox="0 0 50 50" fill="none" xmlns="http://www.w3.org/2000/svg">
<circle opacity="0.1" cx="25" cy="25" r="25" fill="#25A55F"/>
<path d="M17.6652 27.1461C17.6652 27.1994 17.6226 27.243 17.5707 27.243H16.2288C16.1768 27.243 16.1343 27.1994 16.1343 27.1461V25.7689C16.1343 25.7155 16.1768 25.6719 16.2288 25.6719H17.5707C17.6226 25.6719 17.6652 25.7155 17.6652 25.7689V27.1461Z" fill="#346473"/>
<path d="M19.5934 27.146C19.5934 27.1993 19.5509 27.243 19.4989 27.243H18.157C18.105 27.243 18.0625 27.1993 18.0625 27.146V25.7688C18.0625 25.7155 18.105 25.6718 18.157 25.6718H19.4989C19.5509 25.6718 19.5934 25.7155 19.5934 25.7688V27.146Z" fill="#346473"/>
<path d="M31.9252 27.1461C31.9252 27.1994 31.8826 27.243 31.8307 27.243H30.4888C30.4368 27.243 30.3943 27.1994 30.3943 27.1461V25.7689C30.3943 25.7155 30.4368 25.6719 30.4888 25.6719H31.8307C31.8826 25.6719 31.9252 25.7155 31.9252 25.7689V27.1461Z" fill="#346473"/>
<path d="M33.8534 27.146C33.8534 27.1993 33.8109 27.243 33.7589 27.243H32.417C32.365 27.243 32.3225 27.1993 32.3225 27.146V25.7688C32.3225 25.7155 32.365 25.6718 32.417 25.6718H33.7589C33.8109 25.6718 33.8534 25.7155 33.8534 25.7688V27.146Z" fill="#346473"/>
<path d="M36.9053 25.846L35.228 24.1245V22.9073C35.228 22.8394 35.1713 22.7861 35.1051 22.7861H34.5759C34.5098 22.7861 34.4578 22.8394 34.4578 22.9073V23.3389L32.2371 21.0597C32.1756 20.9967 32.0717 20.9967 32.0055 21.0597L31.774 21.2974C31.7126 21.3604 31.6086 21.4671 31.5425 21.535L29.5344 23.5959L25.5654 19.5225C25.504 19.4546 25.4 19.3528 25.3339 19.2849L25.1071 19.0473C25.0457 18.9842 24.9417 18.9842 24.8756 19.0473L22.6548 21.3265V20.8949C22.6548 20.827 22.6028 20.7736 22.532 20.7736H22.0028C21.9366 20.7736 21.8799 20.8318 21.8799 20.8949V22.112L20.4435 23.5862L18.4354 21.5253C18.374 21.4622 18.2701 21.3556 18.2039 21.2877L17.9724 21.05C17.911 20.987 17.807 20.987 17.7409 21.05L15.5201 23.3292V22.8976C15.5201 22.8297 15.4682 22.7764 15.3973 22.7764H14.8775C14.8114 22.7764 14.7547 22.8297 14.7547 22.8976V24.1148L13.0773 25.8363C13.0159 25.8994 13.0159 26.006 13.0773 26.0739L13.3088 26.3115C13.3703 26.3746 13.4742 26.3746 13.5404 26.3115L17.7456 21.9908C17.807 21.9278 17.911 21.9278 17.9771 21.9908L22.1871 26.3115C22.2485 26.3746 22.3524 26.3746 22.4186 26.3115L22.6501 26.0739C22.7115 26.0109 22.7115 25.9042 22.6501 25.8363L20.9113 24.0518L24.8803 19.9783C24.9417 19.9153 25.0457 19.9153 25.1118 19.9783L29.0808 24.0518L27.342 25.8363C27.2806 25.8994 27.2806 26.006 27.342 26.0739L27.5735 26.3115C27.6349 26.3746 27.7389 26.3746 27.805 26.3115L32.0103 21.9908C32.0717 21.9278 32.1756 21.9278 32.2418 21.9908L36.447 26.3115C36.5084 26.3746 36.6124 26.3746 36.6785 26.3115L36.91 26.0739C36.9715 26.0206 36.9715 25.9139 36.9053 25.846Z" fill="#346473"/>
<path d="M18.0712 22.4512C18.0476 22.4269 18.0051 22.3833 17.9815 22.359L17.8917 22.2669C17.8681 22.2427 17.8255 22.2427 17.8019 22.2669L16.0159 24.1048C15.9923 24.129 15.9923 24.1727 16.0159 24.1969L16.1057 24.2891C16.1293 24.3133 16.1718 24.3133 16.1954 24.2891L17.8066 22.6355C17.8303 22.6112 17.8728 22.6112 17.8964 22.6355L19.5076 24.2891C19.5313 24.3133 19.5738 24.3133 19.5974 24.2891L19.6872 24.1969C19.7108 24.1727 19.7108 24.129 19.6872 24.1048L18.0712 22.4512Z" fill="#346473"/>
<path d="M25.2107 20.4243C25.1871 20.4001 25.1446 20.3564 25.121 20.3322L25.0312 20.24C25.0076 20.2158 24.965 20.2158 24.9414 20.24L23.1507 22.0779C23.127 22.1022 23.127 22.1458 23.1507 22.1701L23.2404 22.2622C23.2641 22.2865 23.3066 22.2865 23.3302 22.2622L24.9461 20.6037C24.9698 20.5795 25.0123 20.5795 25.0359 20.6037L26.6471 22.2574C26.6708 22.2816 26.7133 22.2816 26.7369 22.2574L26.8267 22.1652C26.8503 22.141 26.8503 22.1022 26.8267 22.0731L25.2107 20.4243Z" fill="#346473"/>
<path d="M32.3407 22.4512C32.3171 22.4269 32.2746 22.3833 32.251 22.359L32.1612 22.2669C32.1376 22.2427 32.095 22.2427 32.0714 22.2669L30.2807 24.1048C30.257 24.129 30.257 24.1727 30.2807 24.1969L30.3704 24.2891C30.3941 24.3133 30.4366 24.3133 30.4602 24.2891L32.0714 22.6355C32.095 22.6112 32.1376 22.6112 32.1612 22.6355L33.7724 24.2891C33.796 24.3133 33.8386 24.3133 33.8622 24.2891L33.952 24.1969C33.9756 24.1727 33.9756 24.129 33.952 24.1048L32.3407 22.4512Z" fill="#346473"/>
<path d="M24.9937 28.964C30.6825 28.964 35.6059 30.1957 37.9873 31.99C37.2738 29.6963 31.7315 27.9069 24.9937 27.9069C18.2559 27.9069 12.7135 29.6914 12 31.99C14.3767 30.1957 19.3001 28.964 24.9937 28.964Z" fill="#25A55F"/>
<path d="M17.6652 28.3819V27.64C17.6652 27.5866 17.6226 27.543 17.5707 27.543H16.2288C16.1768 27.543 16.1343 27.5866 16.1343 27.64V28.8086C16.6115 28.6535 17.1218 28.5128 17.6652 28.3819Z" fill="#346473"/>
<path d="M19.5928 28.0037V27.64C19.5928 27.5866 19.5503 27.543 19.4983 27.543H18.1564C18.1044 27.543 18.0619 27.5866 18.0619 27.64V28.2946C18.5486 28.1831 19.0636 28.0861 19.5928 28.0037Z" fill="#346473"/>
<path d="M31.9252 28.29V27.6353C31.9252 27.582 31.8826 27.5383 31.8307 27.5383H30.4888C30.4368 27.5383 30.3943 27.582 30.3943 27.6353V27.999C30.9235 28.0863 31.4338 28.1833 31.9252 28.29Z" fill="#346473"/>
<path d="M33.8528 28.8086V27.64C33.8528 27.5866 33.8103 27.543 33.7583 27.543H32.4164C32.3644 27.543 32.3219 27.5866 32.3219 27.64V28.3819C32.8605 28.5128 33.3708 28.6535 33.8528 28.8086Z" fill="#346473"/>
<path d="M24.7954 25.3659C24.7954 25.4192 24.7529 25.4628 24.7009 25.4628H23.359C23.3071 25.4628 23.2645 25.4192 23.2645 25.3659V23.9886C23.2645 23.9353 23.3071 23.8917 23.359 23.8917H24.7009C24.7529 23.8917 24.7954 23.9353 24.7954 23.9886V25.3659Z" fill="#346473"/>
<path d="M26.7233 25.3658C26.7233 25.4191 26.6807 25.4628 26.6288 25.4628H25.2869C25.2349 25.4628 25.1924 25.4191 25.1924 25.3658V23.9886C25.1924 23.9352 25.2349 23.8916 25.2869 23.8916H26.6288C26.6807 23.8916 26.7233 23.9352 26.7233 23.9886V25.3658Z" fill="#346473"/>
<path d="M24.7953 27.2378C24.7953 27.2911 24.7528 27.3348 24.7008 27.3348H23.3589C23.3069 27.3348 23.2644 27.2911 23.2644 27.2378V25.8606C23.2644 25.8073 23.3069 25.7636 23.3589 25.7636H24.7008C24.7528 25.7636 24.7953 25.8073 24.7953 25.8606V27.2378Z" fill="#346473"/>
<path d="M26.7231 27.2384C26.7231 27.2918 26.6806 27.3354 26.6286 27.3354H25.2868C25.2348 27.3354 25.1923 27.2918 25.1923 27.2384V25.8612C25.1923 25.8079 25.2348 25.7642 25.2868 25.7642H26.6286C26.6806 25.7642 26.7231 25.8079 26.7231 25.8612V27.2384Z" fill="#346473"/>
</svg>
