<svg width="26" height="19" viewBox="0 0 26 19" fill="none" xmlns="http://www.w3.org/2000/svg">
<path d="M11.076 16.0628V15.4197H13.4816V14.7848H11.076V14.1417H13.4816V13.4985H11.076V12.8553H13.4816V12.2121H11.076V11.5689H13.4816V10.9257H11.076V10.2826H13.4816V9.63938H11.076V8.9962H13.4816V8.35301H11.076V7.70983H13.4816V7.06665H11.076V6.42347H13.4816V5.78028H11.076V5.1371H13.4816V4.49392H11.076V3.85074H13.4816V3.20756H11.076V2.56438H13.4816V1.92119H11.076V1.27801H13.4816V0.643182H11.076V0H8.08557V16.7311C9.63923 16.681 11.1678 16.4554 12.6463 16.0712H11.076V16.0628Z" fill="#BAA360"/>
<path d="M17.4076 13.9668V13.5408H18.3849C18.6021 13.4071 18.8109 13.2651 19.0197 13.1148H17.4076V12.6971H19.6044C19.7715 12.5718 19.9469 12.4382 20.114 12.3045V12.2711H17.4076V11.8451H20.114V11.4191H17.4076V10.9931H20.114V10.5671H17.4076V10.1411H20.114V9.71508H17.4076V9.28907H20.114V8.86307H17.4076V8.43707H19.7548L19.3288 8.01106H17.3992V7.60177H18.9028L18.4768 7.17576H17.3992V6.74976H18.0508L14.6929 3.39185V15.4035C15.7286 15.0109 16.7227 14.5264 17.6833 13.9668H17.4076Z" fill="#BAA360"/>
<path d="M3.60009 6.65787H4.15975V7.20917H3.05715L2.50585 7.75212H4.15975V8.30342H1.95455L1.45337 8.8046V8.85472H4.15975V9.40602H1.46172V9.95732H4.1681V10.5086H1.46172V11.0599H4.1681V11.6112H1.46172V12.1625H4.1681V12.7138H1.46172V13.2651H4.1681V13.8164H1.46172V14.3677H4.1681V14.919H1.46172V15.4703H4.1681V16.0216H1.85431C2.85668 16.2973 3.87574 16.5061 4.90316 16.6397C5.5547 16.7233 6.21459 16.765 6.86612 16.7817V3.39185L3.60009 6.65787Z" fill="#BAA360"/>
<path d="M25.2679 15.6285C24.8836 15.2109 24.4994 14.8016 24.1152 14.3839C17.0736 19.496 7.73489 20.3146 0 16.2717C7.73489 19.0867 16.1547 17.2657 21.8431 11.9282C21.4589 11.5105 21.0747 11.1012 20.6904 10.6836L25.8693 10.2993L25.2679 15.6285Z" fill="#BAA360"/>
</svg>
