<svg width="13" height="12" viewBox="0 0 13 12" fill="none" xmlns="http://www.w3.org/2000/svg">
<path d="M10.5762 2.79388C10.5859 2.7147 10.6002 2.63654 10.6002 2.55429C10.6002 2.47204 10.5859 2.39388 10.5762 2.3147L11.0365 1.96629C11.1392 1.88864 11.1678 1.74663 11.1034 1.63475L10.6901 0.919545C10.6258 0.808178 10.4883 0.76169 10.3698 0.811754L9.84005 1.035C9.7108 0.936404 9.57338 0.849558 9.42166 0.786211L9.35116 0.223756C9.33481 0.0960414 9.22651 0 9.09777 0H8.27171C8.14298 0 8.03417 0.0960414 8.01833 0.223756L7.94783 0.786211C7.79611 0.849558 7.65817 0.936914 7.52944 1.035L6.99968 0.811754C6.88065 0.76169 6.74323 0.807667 6.67886 0.919545L6.26608 1.63475C6.20172 1.74611 6.23032 1.88813 6.33301 1.96629L6.79329 2.3147C6.78307 2.39388 6.76877 2.47204 6.76877 2.55429C6.76877 2.63654 6.78307 2.7147 6.79278 2.79388L6.3325 3.14229C6.22981 3.21994 6.20121 3.36196 6.26557 3.47384L6.67886 4.18904C6.74323 4.30041 6.88065 4.34689 6.99917 4.29683L7.52893 4.07307C7.65817 4.17167 7.79559 4.25852 7.94732 4.32186L8.01782 4.88432C8.03417 5.01254 8.14247 5.10858 8.2712 5.10858H9.09726C9.226 5.10858 9.33481 5.01254 9.35065 4.88483L9.42115 4.32237C9.57287 4.25903 9.7108 4.17167 9.83954 4.07359L10.3693 4.29683C10.4883 4.34689 10.6258 4.30092 10.6901 4.18904L11.1029 3.47384C11.1673 3.36247 11.1387 3.22045 11.036 3.14229L10.5762 2.79388ZM8.68449 3.57601C8.11999 3.57601 7.66277 3.11879 7.66277 2.55429C7.66277 1.98979 8.11999 1.53258 8.68449 1.53258C9.24899 1.53258 9.70621 1.98979 9.70621 2.55429C9.70621 3.11879 9.24899 3.57601 8.68449 3.57601Z" fill="#159DFF"/>
<path d="M0.251342 5.62038C0.111878 5.62293 0 5.73634 0 5.8758V10.6002C0 10.6707 0.0572162 10.7279 0.127715 10.7279H1.33947C1.4539 10.7279 1.55403 10.6523 1.58519 10.5425L2.71572 6.55882C2.78878 6.30135 2.65085 6.03059 2.39899 5.93915C1.93615 5.77057 1.22606 5.60403 0.251342 5.62038Z" fill="#159DFF"/>
<path d="M11.2387 8.42891C10.217 8.42891 8.17353 9.72189 7.15181 9.72189C6.13009 9.72189 4.98066 8.93977 4.98066 8.93977C4.98066 8.93977 6.35691 9.1952 7.15181 9.1952C7.94671 9.1952 8.17353 8.92393 8.17353 8.55662C8.17353 7.66262 6.65526 7.52367 5.88692 7.40668C5.1329 6.98676 4.74107 6.6547 3.49202 6.54895C3.48487 6.622 3.47363 6.69455 3.45319 6.76658L2.42688 10.3835C3.58908 10.9122 5.59063 11.7495 6.64095 11.7495C8.17353 11.7495 12.2604 9.70606 12.2604 9.1952C12.2604 8.68434 11.7495 8.42891 11.2387 8.42891Z" fill="#159DFF"/>
</svg>
