<svg width="16" height="16" viewBox="0 0 16 16" fill="none" xmlns="http://www.w3.org/2000/svg">
<path d="M4.44243 15.8287C4.32041 15.9108 4.17111 15.942 4.0264 15.9156C3.88169 15.8892 3.75304 15.8072 3.6679 15.6873C3.62669 15.6265 3.5981 15.558 3.58384 15.486C3.56957 15.4139 3.56992 15.3398 3.58486 15.2678C3.59981 15.1959 3.62904 15.1277 3.67082 15.0673C3.71261 15.0069 3.7661 14.9555 3.82812 14.9162L6.69806 13.0758L7.50887 13.651L4.44243 15.8287ZM12.422 15.268C12.4443 15.3764 12.4336 15.489 12.3911 15.5911C12.3486 15.6933 12.2764 15.7803 12.1837 15.8409C12.0911 15.9014 11.9824 15.9327 11.8718 15.9306C11.7612 15.9285 11.6537 15.8932 11.5635 15.8292L3.55566 10.1459C3.50683 10.1113 3.44836 10.0929 3.3885 10.0933C3.32865 10.0937 3.27043 10.1129 3.22208 10.1482C2.88376 10.369 2.48596 10.481 2.08212 10.4691C1.67829 10.4572 1.28777 10.322 0.963028 10.0816C0.526095 9.79503 0.207891 9.35973 0.0674019 8.85643C0.000176986 8.63657 -0.017042 8.40446 0.017005 8.17709C0.051052 7.94972 0.135504 7.73284 0.26418 7.54232C0.392856 7.35179 0.562501 7.19245 0.760702 7.07595C0.958902 6.95944 1.18064 6.88872 1.4097 6.86897C1.92892 6.81069 2.45167 6.9426 2.88108 7.24024C3.22532 7.45152 3.49667 7.76306 3.6587 8.13303C3.82074 8.503 3.86571 8.91368 3.78756 9.30995C3.77288 9.36804 3.77684 9.42927 3.79888 9.48498C3.82092 9.5407 3.85992 9.58807 3.91037 9.62039L12.1795 14.9159C12.2415 14.9553 12.295 15.0067 12.3366 15.0672C12.3783 15.1278 12.4073 15.196 12.422 15.268ZM15.0437 10.0811C14.7189 10.3213 14.3283 10.4564 13.9244 10.4682C13.5205 10.48 13.1227 10.3679 12.7844 10.147C12.736 10.1117 12.6778 10.0925 12.618 10.0921C12.5581 10.0917 12.4996 10.1101 12.4508 10.1447L9.29127 12.3878L8.53387 11.9023L12.0964 9.61754C12.1467 9.58525 12.1856 9.53797 12.2077 9.48238C12.2297 9.42678 12.2337 9.36567 12.2192 9.30767C12.1426 8.91133 12.1884 8.50108 12.3505 8.1314C12.5126 7.76172 12.7834 7.45011 13.1268 7.23796C14.0407 6.62193 15.2156 6.75787 15.7437 7.54012C16.2718 8.32236 15.9573 9.46503 15.0437 10.0811Z" fill="#FE8A71"/>
<path d="M5.38213 8.85297L5.26789 8.28178H10.7399L10.6257 8.85297H5.38213ZM4.29116 0.57071C4.56332 0.570012 4.83271 0.625449 5.08249 0.733555C5.33226 0.841662 5.55706 1.00012 5.74284 1.19902C5.77458 1.23259 5.81399 1.25795 5.8577 1.27294C5.9014 1.28793 5.94808 1.29209 5.99375 1.28507C6.03941 1.27805 6.08269 1.26005 6.11987 1.23263C6.15705 1.20521 6.18702 1.16917 6.20721 1.12762C6.37036 0.789741 6.62548 0.504713 6.94328 0.305257C7.26108 0.105801 7.62869 0 8.00389 0C8.3791 0 8.7467 0.105801 9.0645 0.305257C9.38231 0.504713 9.63742 0.789741 9.80057 1.12762C9.82077 1.16917 9.85074 1.20521 9.88792 1.23263C9.9251 1.26005 9.96838 1.27805 10.014 1.28507C10.0597 1.29209 10.1064 1.28793 10.1501 1.27294C10.1938 1.25795 10.2332 1.23259 10.2649 1.19902C10.4507 1.00012 10.6755 0.841662 10.9253 0.733555C11.1751 0.625449 11.4445 0.570012 11.7166 0.57071C12.2468 0.57071 12.7553 0.781336 13.1303 1.15625C13.5052 1.53117 13.7158 2.03966 13.7158 2.56988C13.7158 3.10009 13.5052 3.60858 13.1303 3.9835C12.7553 4.35842 12.2468 4.56904 11.7166 4.56904C11.6508 4.56903 11.587 4.59176 11.536 4.6334C11.485 4.67503 11.4499 4.73301 11.4367 4.79752L10.8541 7.71059H9.76116L10.0002 6.03757L9.43472 5.95646L9.18426 7.71059H8.28949V4.56904H7.7183V7.71059H6.82353L6.57306 5.95646L6.00758 6.03757L6.24663 7.71059H5.15365L4.57104 4.79752C4.55787 4.73301 4.52282 4.67503 4.47182 4.6334C4.42082 4.59176 4.357 4.56903 4.29116 4.56904C3.76095 4.56904 3.25245 4.35842 2.87753 3.9835C2.50262 3.60858 2.29199 3.10009 2.29199 2.56988C2.29199 2.03966 2.50262 1.53117 2.87753 1.15625C3.25245 0.781336 3.76095 0.57071 4.29116 0.57071Z" fill="#FE8A71"/>
</svg>
