<svg width="15" height="12" viewBox="0 0 15 12" fill="none" xmlns="http://www.w3.org/2000/svg">
<path d="M3.81818 6C3.81818 5.85534 3.87565 5.7166 3.97794 5.61431C4.08023 5.51201 4.21897 5.45455 4.36364 5.45455H9.27273V1.90909C9.27273 0.818182 8.1208 0 7.09091 0H1.90909C1.40293 0.000541441 0.917665 0.201851 0.559758 0.559758C0.201851 0.917665 0.000541441 1.40293 0 1.90909V10.0909C0.000541441 10.5971 0.201851 11.0823 0.559758 11.4402C0.917665 11.7981 1.40293 11.9995 1.90909 12H7.36364C7.86979 11.9995 8.35506 11.7981 8.71297 11.4402C9.07088 11.0823 9.27219 10.5971 9.27273 10.0909V6.54545H4.36364C4.21897 6.54545 4.08023 6.48799 3.97794 6.38569C3.87565 6.2834 3.81818 6.14466 3.81818 6ZM14.0219 5.61443L11.2947 2.88716C11.1915 2.78918 11.0542 2.73537 10.912 2.73719C10.7697 2.73901 10.6339 2.79632 10.5333 2.89691C10.4327 2.99749 10.3754 3.13339 10.3736 3.27562C10.3717 3.41785 10.4255 3.55517 10.5235 3.6583L12.3194 5.45455H9.27273V6.54545H12.3194L10.5235 8.34171C10.4707 8.39185 10.4285 8.45206 10.3994 8.51877C10.3702 8.58549 10.3547 8.65736 10.3538 8.73016C10.3529 8.80296 10.3665 8.87521 10.394 8.94265C10.4214 9.01009 10.462 9.07136 10.5135 9.12284C10.565 9.17432 10.6263 9.21498 10.6937 9.24241C10.7612 9.26984 10.8334 9.28349 10.9062 9.28256C10.979 9.28162 11.0509 9.26613 11.1176 9.23698C11.1843 9.20783 11.2445 9.16562 11.2947 9.11284L14.0219 6.38557C14.1241 6.28329 14.1816 6.1446 14.1816 6C14.1816 5.8554 14.1241 5.71671 14.0219 5.61443Z" fill="#67D155"/>
</svg>
