<svg width="22" height="19" viewBox="0 0 22 19" fill="none" xmlns="http://www.w3.org/2000/svg">
<path d="M14.566 5.93481H12.9001C12.8271 6.50767 12.7844 7.10219 12.7844 7.71643C12.7844 8.33067 12.8271 8.92519 12.9001 9.49804H14.566C15.5485 9.49804 16.3477 8.69886 16.3477 7.71643C16.3477 6.734 15.5485 5.93481 14.566 5.93481Z" fill="#3793FF"/>
<path d="M16.9418 -0.00390625C15.2127 -0.00390625 13.7309 1.95758 13.1044 4.74709H14.5663C16.2036 4.74709 17.5357 6.07921 17.5357 7.71647C17.5357 9.35373 16.2036 10.6859 14.5663 10.6859H13.1044C13.7309 13.4754 15.2127 15.4368 16.9418 15.4368C19.2377 15.4368 21.1386 11.9803 21.1386 7.71651C21.1386 3.45271 19.2377 -0.00390625 16.9418 -0.00390625Z" fill="#3793FF"/>
<path d="M9.1819 13.2972V13.6552C9.1819 13.9828 8.91569 14.249 8.58802 14.249H7.99413V13.0986C7.81224 13.0833 7.6311 13.0613 7.44781 13.0613C6.35386 13.0613 5.61864 13.0613 4.43091 13.0613V17.2184C4.43091 18.2008 5.23009 19 6.21252 19C7.19495 19 7.99413 18.2008 7.99413 17.2184V15.4368H8.58802C9.53437 15.4368 10.3032 14.6932 10.359 13.7606C9.97927 13.572 9.58866 13.409 9.1819 13.2972Z" fill="#3793FF"/>
<path d="M13.5327 1.20764L11.4898 2.44293C10.3523 3.12988 9.00307 3.50611 7.66564 3.54441C6.42425 4.51844 5.61841 6.01804 5.61841 7.71653C5.61841 9.41502 6.42425 10.9146 7.66564 11.8886C9.00307 11.9269 10.3524 12.3031 11.4898 12.9901L13.5327 14.2253C12.3688 12.8594 11.5967 10.4483 11.5967 7.71653C11.5967 4.98476 12.3688 2.57354 13.5327 1.20764Z" fill="#3793FF"/>
<path d="M5.95148 3.55933H5.22659C2.93426 3.55933 0.986355 5.32906 0.867586 7.49078C0.741728 9.93222 2.69225 11.8735 5.0247 11.8735H5.95144C5.00953 10.7429 4.43081 9.30051 4.43081 7.71644C4.43081 6.13236 5.00957 4.68991 5.95148 3.55933Z" fill="#3793FF"/>
</svg>
