<svg width="12" height="12" viewBox="0 0 12 12" fill="none" xmlns="http://www.w3.org/2000/svg">
<path d="M7.62439 0.872429C7.10315 0.309665 6.37512 -0.000244141 5.57155 -0.000244141C4.7637 -0.000244141 4.03325 0.30779 3.51442 0.867072C2.98996 1.43252 2.73442 2.20099 2.79442 3.03081C2.91335 4.66794 4.15915 5.99972 5.57155 5.99972C6.98395 5.99972 8.2276 4.66821 8.34841 3.03135C8.40921 2.20903 8.15207 1.44216 7.62439 0.872429ZM10.2858 11.9997H0.857291C0.73388 12.0013 0.611664 11.9754 0.499533 11.9238C0.387403 11.8722 0.288179 11.7963 0.209081 11.7016C0.0349744 11.4934 -0.0352037 11.2092 0.0167602 10.9218C0.24283 9.66774 0.948362 8.61426 2.05728 7.87471C3.04246 7.2182 4.2904 6.85686 5.57155 6.85686C6.8527 6.85686 8.10064 7.21846 9.08581 7.87471C10.1947 8.61399 10.9003 9.66747 11.1263 10.9216C11.1783 11.209 11.1081 11.4932 10.934 11.7013C10.8549 11.7961 10.7557 11.8721 10.6436 11.9237C10.5315 11.9753 10.4092 12.0013 10.2858 11.9997Z" fill="#FF9A3D"/>
</svg>
