<svg width="35" height="35" viewBox="0 0 35 35" fill="none" xmlns="http://www.w3.org/2000/svg">
<circle opacity="0.1" cx="17.5" cy="17.5" r="17.5" fill="#159DFF"/>
<g opacity="0.5">
<path d="M17.0908 13C16.2817 13 15.4908 13.2399 14.8181 13.6894C14.1453 14.1389 13.621 14.7779 13.3114 15.5254C13.0018 16.2729 12.9208 17.0954 13.0786 17.889C13.2365 18.6825 13.6261 19.4114 14.1982 19.9835C14.7703 20.5557 15.4992 20.9453 16.2927 21.1031C17.0863 21.261 17.9088 21.18 18.6563 20.8703C19.4038 20.5607 20.0427 20.0364 20.4922 19.3636C20.9417 18.6909 21.1816 17.9 21.1816 17.0909C21.1815 16.0059 20.7505 14.9654 19.9834 14.1983C19.2162 13.4311 18.1757 13.0001 17.0908 13V13Z" stroke="#001829" stroke-miterlimit="10"/>
<path d="M20.1431 20.143L23 23" stroke="#001829" stroke-miterlimit="10" stroke-linecap="round"/>
</g>
</svg>
