<svg width="70" height="70" viewBox="0 0 70 70" fill="none" xmlns="http://www.w3.org/2000/svg">
<rect width="70" height="70" rx="20" fill="white"/>
<rect width="60" height="60" rx="20" transform="matrix(1 0 0 -1 5 60)" fill="url(#paint0_linear_1_2649)"/>
<path d="M48.7144 28.1434V50.0627H34.125L35 28.1434H48.7144Z" fill="#F0F7FF"/>
<path d="M41.8568 28.1434H48.7143V50.0627H41.8568V28.1434Z" fill="#D7E9FC"/>
<path d="M38.7679 31.9109H40.6429V33.7859H38.7679V31.9109Z" fill="#00B3FF"/>
<path d="M43.0714 31.9109H44.9464V33.7859H43.0714V31.9109Z" fill="#3A80E8"/>
<path d="M38.7679 36.2141H40.6429V38.0891H38.7679V36.2141Z" fill="#00B3FF"/>
<path d="M43.0714 36.2141H44.9464V38.0891H43.0714V36.2141Z" fill="#3A80E8"/>
<path d="M38.7679 40.5175H40.6429V42.3925H38.7679V40.5175Z" fill="#00B3FF"/>
<path d="M43.0714 40.5175H44.9464V42.3925H43.0714V40.5175Z" fill="#3A80E8"/>
<path d="M23.5713 19H32.7144V25.4763H23.5713V19Z" fill="#F0F7FF"/>
<path d="M28.1432 19H32.7144V25.4763H28.1432V19Z" fill="#D7E9FC"/>
<path d="M38.7679 44.8217H40.6429V46.6967H38.7679V44.8217Z" fill="#00B3FF"/>
<path d="M43.0714 44.8217H44.9464V46.6967H43.0714V44.8217Z" fill="#3A80E8"/>
<path d="M35 23.5717V50.0629H21.2856V25.8573L28.1431 24.7142L35 23.5717Z" fill="#00B3FF"/>
<path d="M35.0001 23.5717V50.0629H28.1432V24.7142L35.0001 23.5717Z" fill="#3A80E8"/>
<path d="M29.3571 27.6075H31.2321V29.4825H29.3571V27.6075Z" fill="#00B3FF"/>
<path d="M29.3571 31.9109H31.2321V33.7859H29.3571V31.9109Z" fill="#00B3FF"/>
<path d="M25.0536 31.9109H26.9286V33.7859H25.0536V31.9109Z" fill="#00F6FE"/>
<path d="M29.3571 36.2141H31.2321V38.0891H29.3571V36.2141Z" fill="#00B3FF"/>
<path d="M25.0536 36.2141H26.9286V38.0891H25.0536V36.2141Z" fill="#00F6FE"/>
<path d="M29.3571 40.5175H31.2321V42.3925H29.3571V40.5175Z" fill="#00B3FF"/>
<path d="M25.0536 40.5175H26.9286V42.3925H25.0536V40.5175Z" fill="#00F6FE"/>
<path d="M25.0537 44.8217H31.2318V50.0627H25.0537V44.8217Z" fill="#00F6FE"/>
<path d="M28.1432 44.8217H31.2319V50.0627H28.1432V44.8217Z" fill="#00B3FF"/>
<path d="M19 49.125H51V51H19V49.125Z" fill="#9DD867"/>
<path d="M35 49.125H51V51H35V49.125Z" fill="#77C080"/>
<defs>
<linearGradient id="paint0_linear_1_2649" x1="30" y1="0" x2="30" y2="60" gradientUnits="userSpaceOnUse">
<stop stop-color="#F8F8F8"/>
<stop offset="1" stop-color="#F8F8F8" stop-opacity="0"/>
</linearGradient>
</defs>
</svg>
