<svg width="50" height="50" viewBox="0 0 50 50" fill="none" xmlns="http://www.w3.org/2000/svg">
<circle opacity="0.1" cx="25" cy="25" r="25" fill="#BAA360"/>
<path d="M23.076 32.0628V31.4197H25.4816V30.7848H23.076V30.1417H25.4816V29.4985H23.076V28.8553H25.4816V28.2121H23.076V27.5689H25.4816V26.9257H23.076V26.2826H25.4816V25.6394H23.076V24.9962H25.4816V24.353H23.076V23.7098H25.4816V23.0666H23.076V22.4235H25.4816V21.7803H23.076V21.1371H25.4816V20.4939H23.076V19.8507H25.4816V19.2076H23.076V18.5644H25.4816V17.9212H23.076V17.278H25.4816V16.6432H23.076V16H20.0856V32.7311C21.6392 32.681 23.1678 32.4554 24.6463 32.0712H23.076V32.0628Z" fill="#BAA360"/>
<path d="M29.4076 29.9668V29.5408H30.3849C30.6021 29.4072 30.8109 29.2652 31.0197 29.1148H29.4076V28.6972H31.6044C31.7715 28.5719 31.9469 28.4382 32.114 28.3046V28.2712H29.4076V27.8452H32.114V27.4192H29.4076V26.9932H32.114V26.5671H29.4076V26.1411H32.114V25.7151H29.4076V25.2891H32.114V24.8631H29.4076V24.4371H31.7548L31.3288 24.0111H29.3992V23.6018H30.9028L30.4768 23.1758H29.3992V22.7498H30.0508L26.6929 19.3919V31.4035C27.7286 31.0109 28.7227 30.5265 29.6833 29.9668H29.4076Z" fill="#BAA360"/>
<path d="M15.6001 22.6579H16.1597V23.2092H15.0571L14.5058 23.7522H16.1597V24.3035H13.9546L13.4534 24.8047V24.8548H16.1597V25.4061H13.4617V25.9574H16.1681V26.5087H13.4617V27.06H16.1681V27.6113H13.4617V28.1626H16.1681V28.7139H13.4617V29.2652H16.1681V29.8165H13.4617V30.3678H16.1681V30.9191H13.4617V31.4704H16.1681V32.0217H13.8543C14.8567 32.2973 15.8757 32.5061 16.9032 32.6398C17.5547 32.7233 18.2146 32.7651 18.8661 32.7818V19.3919L15.6001 22.6579Z" fill="#BAA360"/>
<path d="M37.2679 31.6285C36.8836 31.2108 36.4994 30.8015 36.1152 30.3839C29.0736 35.4959 19.7349 36.3145 12 32.2717C19.7349 35.0866 28.1547 33.2657 33.8431 27.9281C33.4589 27.5104 33.0747 27.1011 32.6904 26.6835L37.8693 26.2993L37.2679 31.6285Z" fill="#BAA360"/>
</svg>
