<svg width="9" height="9" viewBox="0 0 9 9" fill="none" xmlns="http://www.w3.org/2000/svg">
<path d="M5.57461 1.72017C5.99545 1.80213 6.38222 2.00755 6.68541 2.31017C6.9886 2.61278 7.19442 2.99881 7.27653 3.41885L5.57461 1.72017ZM5.57461 0C6.44896 0.0969474 7.26429 0.487744 7.88674 1.10823C8.5092 1.72871 8.90177 2.54199 9 3.41454L5.57461 0ZM8.56913 6.84629V8.13642C8.56962 8.25619 8.54504 8.37474 8.49697 8.48448C8.44889 8.59421 8.37839 8.69272 8.28996 8.77369C8.20154 8.85466 8.09715 8.9163 7.98348 8.95467C7.8698 8.99304 7.74935 9.00729 7.62984 8.99651C6.30399 8.85272 5.03042 8.40053 3.91146 7.67628C2.87041 7.01601 1.98778 6.13507 1.32626 5.09601C0.598084 3.97412 0.144926 2.6968 0.00349722 1.36754C-0.00726993 1.24862 0.00689026 1.12876 0.0450761 1.0156C0.0832618 0.902441 0.144637 0.798457 0.225293 0.710269C0.305949 0.622081 0.404119 0.551621 0.513554 0.503375C0.622988 0.45513 0.741288 0.430156 0.860923 0.430043H2.15352C2.36263 0.427989 2.56534 0.501895 2.72389 0.637984C2.88243 0.774073 2.98599 0.963059 3.01526 1.16972C3.06982 1.58259 3.17099 1.98797 3.31686 2.37814C3.37483 2.53206 3.38738 2.69935 3.35302 2.86017C3.31865 3.02099 3.23882 3.16861 3.12297 3.28553L2.57577 3.83169C3.18914 4.90832 4.08228 5.79976 5.16097 6.41195L5.70818 5.86579C5.82532 5.75017 5.97323 5.67049 6.13436 5.63619C6.29548 5.60189 6.46309 5.61441 6.61731 5.67227C7.00822 5.81786 7.41438 5.91885 7.82804 5.9733C8.03734 6.00277 8.22849 6.108 8.36513 6.26896C8.50177 6.42992 8.57438 6.63539 8.56913 6.84629Z" fill="white"/>
</svg>
