<svg width="68" height="49" viewBox="0 0 68 49" fill="none" xmlns="http://www.w3.org/2000/svg">
<path d="M67 30.625C67 35.1569 63.5862 39.4849 57.5662 42.7383C51.586 45.9703 43.2559 48 34 48C24.7441 48 16.414 45.9703 10.4338 42.7383C4.41376 39.4849 1 35.1569 1 30.625C1 28.3086 1.87875 25.2887 3.56125 22.0158C5.23488 18.7601 7.6662 15.3281 10.6786 12.2007C16.7193 5.92929 24.9762 1 34 1C43.0238 1 51.2807 5.92929 57.3214 12.2007C60.3338 15.3281 62.7651 18.7601 64.4387 22.0158C66.1213 25.2887 67 28.3086 67 30.625Z" fill="white" fill-opacity="0.8" stroke="white" stroke-width="2"/>
<path d="M28.424 25.624H23.924V34H28.424V33.1H25.016V30.22H28.064V29.32H25.016V26.524H28.424V25.624ZM29.6683 30.688C29.6683 32.728 31.0243 34.108 32.7883 34.108C33.9883 34.108 34.8403 33.496 35.2363 32.764V34H36.3403V25.12H35.2363V28.6C34.7803 27.844 33.8323 27.316 32.8003 27.316C31.0243 27.316 29.6683 28.636 29.6683 30.688ZM35.2363 30.7C35.2363 32.248 34.2043 33.148 33.0043 33.148C31.8043 33.148 30.7843 32.236 30.7843 30.688C30.7843 29.14 31.8043 28.264 33.0043 28.264C34.2043 28.264 35.2363 29.176 35.2363 30.7ZM38.1857 34H39.2777V27.424H38.1857V34ZM38.7497 26.356C39.1457 26.356 39.4697 26.032 39.4697 25.612C39.4697 25.192 39.1457 24.868 38.7497 24.868C38.3297 24.868 38.0057 25.192 38.0057 25.612C38.0057 26.032 38.3297 26.356 38.7497 26.356ZM41.3788 32.2C41.3788 33.52 42.0388 34 43.2028 34H44.1868V33.076H43.3828C42.7108 33.076 42.4708 32.848 42.4708 32.2V28.324H44.1868V27.424H42.4708V25.768H41.3788V27.424H40.5268V28.324H41.3788V32.2Z" fill="#001829"/>
<path d="M33.9999 10C31.2385 10 29 12.2387 29 14.9999C29 17.7612 31.2385 20.0001 33.9999 20.0001C36.7612 20.0001 39 17.7613 39 14.9999C39 12.2386 36.7612 10 33.9999 10ZM36.3767 13.5982L35.9018 14.0731L34.9351 13.1065L34.5684 13.4732L35.5351 14.4399L33.164 16.8108L32.1974 15.8442L31.8307 16.211L32.7973 17.1776L32.561 17.4139L32.5565 17.4094C32.5303 17.4525 32.4877 17.484 32.4371 17.4952L31.5357 17.6962C31.5222 17.6993 31.5085 17.7007 31.4949 17.7007C31.4457 17.7007 31.3979 17.6814 31.3624 17.6458C31.317 17.6005 31.298 17.5351 31.312 17.4724L31.513 16.5712C31.5243 16.5206 31.5558 16.4779 31.5989 16.4518L31.5943 16.4472L35.41 12.6314C35.4659 12.5756 35.5568 12.5756 35.6127 12.6316L36.3768 13.3955C36.4328 13.4514 36.4328 13.5423 36.3767 13.5982Z" fill="#00B761"/>
</svg>
