<svg width="15" height="15" viewBox="0 0 15 15" fill="none" xmlns="http://www.w3.org/2000/svg">
<path d="M3.32432 9.06465L2.80219 11.0138L0.893818 11.0542C0.323496 9.99637 0 8.78609 0 7.49996C0 6.25628 0.302461 5.08347 0.838593 4.05078H0.839004L2.53799 4.36227L3.28224 6.05105C3.12647 6.50518 3.04157 6.99268 3.04157 7.49996C3.04163 8.05051 3.14136 8.578 3.32432 9.06465Z" fill="white"/>
<path d="M14.869 6.099C14.9551 6.55269 15 7.02124 15 7.50009C15 8.03705 14.9436 8.56081 14.836 9.06604C14.4709 10.7853 13.5169 12.2865 12.1954 13.3489L12.195 13.3484L10.055 13.2393L9.75214 11.3486C10.6291 10.8343 11.3144 10.0295 11.6754 9.06604H7.66492V6.099H11.7339H14.869Z" fill="white"/>
<path d="M12.1949 13.3485L12.1953 13.3489C10.91 14.382 9.2773 15.0001 7.49998 15.0001C4.6438 15.0001 2.16057 13.4037 0.893799 11.0544L3.3243 9.06482C3.95766 10.7552 5.5883 11.9585 7.49998 11.9585C8.32167 11.9585 9.09147 11.7364 9.75203 11.3486L12.1949 13.3485Z" fill="white"/>
<path d="M12.2873 1.72664L9.85758 3.71578C9.17393 3.28846 8.36581 3.0416 7.50003 3.0416C5.54508 3.0416 3.88394 4.30011 3.2823 6.05109L0.839033 4.05082H0.838623C2.08685 1.64423 4.6014 0 7.50003 0C9.3198 0 10.9883 0.648222 12.2873 1.72664Z" fill="white"/>
</svg>
