<svg width="70" height="70" viewBox="0 0 70 70" fill="none" xmlns="http://www.w3.org/2000/svg">
<rect width="70" height="70" rx="20" fill="white"/>
<rect width="60" height="60" rx="20" transform="matrix(1 0 0 -1 5 60)" fill="url(#paint0_linear_1_2545)"/>
<path d="M21.8117 35.3158L21.0305 34.5447L20.2493 35.3158C19.9669 35.5944 17.4915 38.1046 17.4915 40.425C17.4915 42.3764 19.0791 43.964 21.0305 43.964C22.9819 43.964 24.5692 42.3764 24.5692 40.425C24.5695 38.1046 22.0941 35.5944 21.8117 35.3158Z" fill="#56C225"/>
<path d="M21.8118 35.3158L21.0306 34.5447V43.964C22.9821 43.964 24.5697 42.3764 24.5697 40.4253C24.5697 38.1046 22.0943 35.5944 21.8118 35.3158Z" fill="#49A520"/>
<path d="M19.9181 42.1105H22.1424V47.8882H19.9181V42.1105Z" fill="#99503D"/>
<path d="M21.0306 42.1105H22.1426V47.8885H21.0306V42.1105Z" fill="#804231"/>
<path d="M33.2455 20.6275L25.9569 26.8288V47.8882H40.5341V26.8288L33.2455 20.6275Z" fill="#E9DFDA"/>
<path d="M40.5342 26.8288L33.2456 20.6275V47.8882H40.5342V26.8288Z" fill="#DAD0CB"/>
<path d="M46.2088 32.8524L38.9202 38.4301V47.8885H53.4974V38.4301L46.2088 32.8524Z" fill="#F3EEE9"/>
<path d="M53.4976 38.4298L46.2092 32.8524V47.8882H53.4976V38.4298Z" fill="#E9DFDA"/>
<path d="M38.3028 40.5334L36.9509 38.7671L46.2092 31.6821L55.4573 38.7673L54.1046 40.5331L46.2086 34.4836L38.3028 40.5334Z" fill="#FF1F3E"/>
<path d="M55.4574 38.7673L46.2092 31.6821V34.4842L54.1047 40.5331L55.4574 38.7673Z" fill="#BF0000"/>
<path d="M42.9805 41.6747H49.4369V47.8881H42.9805V41.6747Z" fill="#99503D"/>
<path d="M46.2092 41.6747H49.4372V47.8881H46.2092V41.6747Z" fill="#804231"/>
<path d="M33.2456 41.3819C31.4656 41.3819 30.0173 42.8299 30.0173 44.6101V47.8884H36.4738V44.6101C36.4738 42.8299 35.0255 41.3819 33.2456 41.3819Z" fill="#99503D"/>
<path d="M36.4738 44.6101C36.4738 42.8299 35.0255 41.3819 33.2456 41.3819V47.8884H36.4738V44.6101Z" fill="#804231"/>
<path d="M41.9577 29.4771L33.2457 22.0651L24.5337 29.4771L23.0924 27.7829L33.2457 19.1445L43.399 27.7829L41.9577 29.4771Z" fill="#FF1F3E"/>
<path d="M33.2456 19.1445V22.0651L41.9576 29.4771L43.3989 27.7829L33.2456 19.1445Z" fill="#BF0000"/>
<path d="M30.2755 28.4689H36.2158V34.4091H30.2755V28.4689Z" fill="#B7E0F6"/>
<path d="M33.2456 28.4689H36.2157V34.4091H33.2456V28.4689Z" fill="#A4D9F5"/>
<path d="M17.4921 46.7757H55.4547V48.9999H17.4921V46.7757Z" fill="#725D57"/>
<path d="M36.4733 46.7757H55.4547V48.9999H36.4733V46.7757Z" fill="#53433F"/>
<defs>
<linearGradient id="paint0_linear_1_2545" x1="30" y1="0" x2="30" y2="60" gradientUnits="userSpaceOnUse">
<stop stop-color="#F8F8F8"/>
<stop offset="1" stop-color="#F8F8F8" stop-opacity="0"/>
</linearGradient>
</defs>
</svg>
