<svg width="39" height="30" viewBox="0 0 39 30" fill="none" xmlns="http://www.w3.org/2000/svg">
<path d="M4.81168 16.3158L4.03047 15.5447L3.24927 16.3158C2.96686 16.5944 0.491455 19.1046 0.491455 21.425C0.491455 23.3764 2.07906 24.964 4.03047 24.964C5.98189 24.964 7.5692 23.3764 7.5692 21.425C7.56949 19.1046 5.09409 16.5944 4.81168 16.3158Z" fill="#56C225"/>
<path d="M4.81184 16.3158L4.03064 15.5447V24.964C5.98205 24.964 7.56966 23.3764 7.56966 21.4253C7.56966 19.1046 5.09426 16.5944 4.81184 16.3158Z" fill="#49A520"/>
<path d="M2.91809 23.1105H5.14236V28.8882H2.91809V23.1105Z" fill="#99503D"/>
<path d="M4.03064 23.1105H5.14263V28.8885H4.03064V23.1105Z" fill="#804231"/>
<path d="M16.2455 1.62753L8.95691 7.82878V28.8882H23.5341V7.82878L16.2455 1.62753Z" fill="#E9DFDA"/>
<path d="M23.5342 7.82878L16.2456 1.62753V28.8882H23.5342V7.82878Z" fill="#DAD0CB"/>
<path d="M29.2088 13.8524L21.9202 19.4301V28.8885H36.4974V19.4301L29.2088 13.8524Z" fill="#F3EEE9"/>
<path d="M36.4976 19.4298L29.2092 13.8524V28.8882H36.4976V19.4298Z" fill="#E9DFDA"/>
<path d="M21.3028 21.5334L19.9509 19.7671L29.2092 12.6821L38.4573 19.7673L37.1046 21.5331L29.2086 15.4836L21.3028 21.5334Z" fill="#FF1F3E"/>
<path d="M38.4574 19.7673L29.2092 12.6821V15.4842L37.1047 21.5331L38.4574 19.7673Z" fill="#BF0000"/>
<path d="M25.9805 22.6747H32.4369V28.8881H25.9805V22.6747Z" fill="#99503D"/>
<path d="M29.2092 22.6747H32.4372V28.8881H29.2092V22.6747Z" fill="#804231"/>
<path d="M16.2456 22.3819C14.4656 22.3819 13.0173 23.8299 13.0173 25.6101V28.8884H19.4738V25.6101C19.4738 23.8299 18.0255 22.3819 16.2456 22.3819Z" fill="#99503D"/>
<path d="M19.4738 25.6101C19.4738 23.8299 18.0255 22.3819 16.2456 22.3819V28.8884H19.4738V25.6101Z" fill="#804231"/>
<path d="M24.9577 10.4771L16.2457 3.06513L7.53374 10.4771L6.09241 8.78294L16.2457 0.144531L26.399 8.78294L24.9577 10.4771Z" fill="#FF1F3E"/>
<path d="M16.2456 0.144531V3.06513L24.9576 10.4771L26.3989 8.78294L16.2456 0.144531Z" fill="#BF0000"/>
<path d="M13.2755 9.46887H19.2158V15.4091H13.2755V9.46887Z" fill="#B7E0F6"/>
<path d="M16.2456 9.46887H19.2157V15.4091H16.2456V9.46887Z" fill="#A4D9F5"/>
<path d="M0.492065 27.7757H38.4547V29.9999H0.492065V27.7757Z" fill="#725D57"/>
<path d="M19.4733 27.7757H38.4547V29.9999H19.4733V27.7757Z" fill="#53433F"/>
</svg>
