<svg width="70" height="70" viewBox="0 0 70 70" fill="none" xmlns="http://www.w3.org/2000/svg">
<rect width="70" height="70" rx="20" fill="white"/>
<rect width="60" height="60" rx="20" transform="matrix(1 0 0 -1 5 60)" fill="url(#paint0_linear_1_2570)"/>
<path d="M51.7287 40.2166V42.9366L34.8643 51.0968V48.3768L51.7287 40.2166Z" fill="#844747"/>
<path d="M34.8644 48.3768V51.0968L18 42.9366V40.2166L34.8644 48.3768Z" fill="#965353"/>
<path d="M27.183 35.777C27.2266 36.0327 27.2483 36.2503 27.2483 36.408C27.2483 37.3111 26.5194 38.0401 25.6163 38.0401C25.007 38.0401 24.4793 37.7082 24.2019 37.2186C24.0659 36.9793 23.9843 36.7018 23.9843 36.408C23.9843 35.505 24.7132 32.5999 25.6163 32.5999C26.3616 32.5999 26.9872 34.5747 27.183 35.777Z" fill="#A0D468"/>
<path d="M40.3046 21.7201L34.8644 24.4401L29.4243 21.7201L34.8644 19L40.3046 21.7201Z" fill="#CCD1D9"/>
<path d="M29.4243 40.2167V34.6895V21.7202L34.8644 24.4403V42.9367L29.4243 40.2167Z" fill="#F5F7FA"/>
<path d="M40.3044 34.6895V40.2167L34.8643 42.9367V24.4403L40.3044 21.7202V34.6895Z" fill="#E6E9ED"/>
<path d="M44.1126 32.5999C45.0157 32.5999 45.7447 35.505 45.7447 36.408C45.7447 36.7018 45.6631 36.9793 45.5271 37.2186C45.2496 37.7082 44.7219 38.0401 44.1126 38.0401C43.2096 38.0401 42.4806 37.3111 42.4806 36.408C42.4806 36.2503 42.5024 36.0272 42.5513 35.7715C42.7417 34.5693 43.3673 32.5999 44.1126 32.5999Z" fill="#A0D468"/>
<path d="M25.6162 38.0405C26.5192 38.0405 27.2482 37.3116 27.2482 36.4085C27.2482 36.2507 27.2265 36.0331 27.1829 35.7774L29.4243 34.6894V40.2166L34.8644 42.9367L40.3045 40.2166V34.6894L42.5404 35.772H42.5513C42.5024 36.0277 42.4806 36.2507 42.4806 36.4085C42.4806 37.3116 43.2096 38.0405 44.1126 38.0405C44.7219 38.0405 45.2496 37.7087 45.5271 37.2191L51.7288 40.2166L34.8644 48.3768L18 40.2166L24.2017 37.2191C24.4792 37.7087 25.0069 38.0405 25.6162 38.0405Z" fill="#8CC152"/>
<path d="M40.3208 47.6502C40.0199 47.6502 39.774 47.407 39.774 47.1062C39.774 46.8054 40.0145 46.5622 40.3148 46.5622H40.3208C40.6211 46.5622 40.8648 46.8054 40.8648 47.1062C40.8648 47.407 40.6211 47.6502 40.3208 47.6502Z" fill="#773E3E"/>
<path d="M48.4811 43.7017C48.1802 43.7017 47.9343 43.4586 47.9343 43.1577C47.9343 42.8569 48.1748 42.6137 48.4751 42.6137H48.4811C48.7814 42.6137 49.0251 42.8569 49.0251 43.1577C49.0251 43.4586 48.7814 43.7017 48.4811 43.7017Z" fill="#773E3E"/>
<path d="M45.7608 45.0179C45.46 45.0179 45.2141 44.7747 45.2141 44.4739C45.2141 44.173 45.4546 43.9299 45.7549 43.9299H45.7608C46.0611 43.9299 46.3049 44.173 46.3049 44.4739C46.3049 44.7747 46.0611 45.0179 45.7608 45.0179Z" fill="#773E3E"/>
<path d="M43.041 46.3341C42.7402 46.3341 42.4943 46.0909 42.4943 45.79C42.4943 45.4892 42.7347 45.246 43.035 45.246H43.041C43.3413 45.246 43.585 45.4892 43.585 45.79C43.585 46.0909 43.3413 46.3341 43.041 46.3341Z" fill="#773E3E"/>
<path d="M37.6008 48.9664C37.3 48.9664 37.0541 48.7232 37.0541 48.4224C37.0541 48.1215 37.2945 47.8784 37.5948 47.8784H37.6008C37.9011 47.8784 38.1448 48.1215 38.1448 48.4224C38.1448 48.7232 37.9011 48.9664 37.6008 48.9664Z" fill="#773E3E"/>
<path d="M29.4407 47.6502C29.1398 47.6502 28.8939 47.407 28.8939 47.1062C28.8939 46.8054 29.1344 46.5622 29.4347 46.5622H29.4407C29.7409 46.5622 29.9847 46.8054 29.9847 47.1062C29.9847 47.407 29.7409 47.6502 29.4407 47.6502Z" fill="#844747"/>
<path d="M21.2804 43.7017C20.9795 43.7017 20.7336 43.4586 20.7336 43.1577C20.7336 42.8569 20.9741 42.6137 21.2744 42.6137H21.2804C21.5807 42.6137 21.8244 42.8569 21.8244 43.1577C21.8244 43.4586 21.5807 43.7017 21.2804 43.7017Z" fill="#844747"/>
<path d="M24.0006 45.0179C23.6998 45.0179 23.4539 44.7747 23.4539 44.4739C23.4539 44.173 23.6943 43.9299 23.9946 43.9299H24.0006C24.3009 43.9299 24.5446 44.173 24.5446 44.4739C24.5446 44.7747 24.3009 45.0179 24.0006 45.0179Z" fill="#844747"/>
<path d="M26.7204 46.3341C26.4196 46.3341 26.1737 46.0909 26.1737 45.79C26.1737 45.4892 26.4142 45.246 26.7145 45.246H26.7204C27.0207 45.246 27.2645 45.4892 27.2645 45.79C27.2645 46.0909 27.0207 46.3341 26.7204 46.3341Z" fill="#844747"/>
<path d="M32.1606 48.9664C31.8598 48.9664 31.6139 48.7232 31.6139 48.4224C31.6139 48.1215 31.8543 47.8784 32.1546 47.8784H32.1606C32.4609 47.8784 32.7046 48.1215 32.7046 48.4224C32.7046 48.7232 32.4609 48.9664 32.1606 48.9664Z" fill="#844747"/>
<path d="M33.2312 39.9444C33.1496 39.9444 33.0664 39.9259 32.9886 39.8873L30.812 38.7987C30.5432 38.6643 30.4344 38.3374 30.5688 38.0686C30.7037 37.7999 31.0301 37.6922 31.2989 37.8255L33.4755 38.914C33.7442 39.0484 33.853 39.3754 33.7186 39.6441C33.6229 39.8345 33.4309 39.9444 33.2312 39.9444Z" fill="#CCD1D9"/>
<path d="M33.2312 37.7682C33.1496 37.7682 33.0664 37.7497 32.9886 37.7111L30.812 36.6225C30.5432 36.4882 30.4344 36.1612 30.5688 35.8925C30.7037 35.6237 31.0301 35.516 31.2989 35.6493L33.4755 36.7379C33.7442 36.8722 33.853 37.1992 33.7186 37.4679C33.6229 37.6583 33.4309 37.7682 33.2312 37.7682Z" fill="#CCD1D9"/>
<path d="M33.2312 35.5923C33.1496 35.5923 33.0664 35.5738 32.9886 35.5352L30.812 34.4466C30.5432 34.3122 30.4344 33.9853 30.5688 33.7165C30.7037 33.4478 31.0301 33.3395 31.2989 33.4734L33.4755 34.5619C33.7442 34.6963 33.853 35.0233 33.7186 35.292C33.6229 35.4824 33.4309 35.5923 33.2312 35.5923Z" fill="#CCD1D9"/>
<path d="M33.2312 33.416C33.1496 33.416 33.0664 33.3975 32.9886 33.3588L30.812 32.2703C30.5432 32.1359 30.4344 31.809 30.5688 31.5402C30.7037 31.2709 31.0301 31.1638 31.2989 31.297L33.4755 32.3856C33.7442 32.52 33.853 32.8469 33.7186 33.1157C33.6229 33.3061 33.4309 33.416 33.2312 33.416Z" fill="#CCD1D9"/>
<path d="M33.2312 31.2397C33.1496 31.2397 33.0664 31.2212 32.9886 31.1826L30.812 30.094C30.5432 29.9596 30.4344 29.6327 30.5688 29.3639C30.7037 29.0952 31.0301 28.9875 31.2989 29.1208L33.4755 30.2093C33.7442 30.3437 33.853 30.6707 33.7186 30.9394C33.6229 31.1298 33.4309 31.2397 33.2312 31.2397Z" fill="#CCD1D9"/>
<path d="M33.2312 29.0638C33.1496 29.0638 33.0664 29.0453 32.9886 29.0066L30.812 27.9181C30.5432 27.7837 30.4344 27.4567 30.5688 27.188C30.7037 26.9193 31.0301 26.811 31.2989 26.9448L33.4755 28.0334C33.7442 28.1678 33.853 28.4947 33.7186 28.7635C33.6229 28.9539 33.4309 29.0638 33.2312 29.0638Z" fill="#CCD1D9"/>
<path d="M33.2312 26.8876C33.1496 26.8876 33.0664 26.8691 32.9886 26.8305L30.812 25.7419C30.5432 25.6075 30.4344 25.2806 30.5688 25.0118C30.7037 24.7431 31.0301 24.6348 31.2989 24.7686L33.4755 25.8572C33.7442 25.9916 33.853 26.3185 33.7186 26.5873C33.6229 26.7777 33.4309 26.8876 33.2312 26.8876Z" fill="#CCD1D9"/>
<path d="M36.4977 39.945C36.298 39.945 36.106 39.8351 36.0102 39.6441C35.8758 39.3754 35.9846 39.0484 36.2534 38.914L38.43 37.8255C38.6987 37.6922 39.0257 37.7999 39.1601 38.0686C39.2944 38.3374 39.1856 38.6643 38.9169 38.7987L36.7403 39.8873C36.6625 39.9265 36.5793 39.945 36.4977 39.945Z" fill="#CCD1D9"/>
<path d="M36.4977 37.7688C36.298 37.7688 36.106 37.6589 36.0102 37.4679C35.8758 37.1992 35.9846 36.8722 36.2534 36.7379L38.43 35.6493C38.6987 35.516 39.0257 35.6237 39.1601 35.8925C39.2944 36.1612 39.1856 36.4882 38.9169 36.6225L36.7403 37.7111C36.6625 37.7503 36.5793 37.7688 36.4977 37.7688Z" fill="#CCD1D9"/>
<path d="M36.4977 35.5928C36.298 35.5928 36.106 35.4829 36.0102 35.292C35.8758 35.0233 35.9846 34.6963 36.2534 34.5619L38.43 33.4734C38.6987 33.3395 39.0257 33.4478 39.1601 33.7165C39.2944 33.9853 39.1856 34.3122 38.9169 34.4466L36.7403 35.5352C36.6625 35.5743 36.5793 35.5928 36.4977 35.5928Z" fill="#CCD1D9"/>
<path d="M36.4977 33.4165C36.298 33.4165 36.106 33.3066 36.0102 33.1157C35.8758 32.8469 35.9846 32.52 36.2534 32.3856L38.43 31.297C38.6987 31.1638 39.0257 31.2709 39.1601 31.5402C39.2944 31.809 39.1856 32.1359 38.9169 32.2703L36.7403 33.3588C36.6625 33.398 36.5793 33.4165 36.4977 33.4165Z" fill="#CCD1D9"/>
<path d="M36.4977 31.2402C36.298 31.2402 36.106 31.1303 36.0102 30.9394C35.8758 30.6707 35.9846 30.3437 36.2534 30.2093L38.43 29.1208C38.6987 28.9875 39.0257 29.0952 39.1601 29.3639C39.2944 29.6327 39.1856 29.9596 38.9169 30.094L36.7403 31.1826C36.6625 31.2217 36.5793 31.2402 36.4977 31.2402Z" fill="#CCD1D9"/>
<path d="M36.4977 29.0643C36.298 29.0643 36.106 28.9544 36.0102 28.7635C35.8758 28.4947 35.9846 28.1678 36.2534 28.0334L38.43 26.9448C38.6987 26.811 39.0257 26.9193 39.1601 27.188C39.2944 27.4567 39.1856 27.7837 38.9169 27.9181L36.7403 29.0066C36.6625 29.0458 36.5793 29.0643 36.4977 29.0643Z" fill="#CCD1D9"/>
<path d="M36.4977 26.8881C36.298 26.8881 36.106 26.7782 36.0102 26.5873C35.8758 26.3185 35.9846 25.9916 36.2534 25.8572L38.43 24.7686C38.6987 24.6348 39.0257 24.7431 39.1601 25.0118C39.2944 25.2806 39.1856 25.6075 38.9169 25.7419L36.7403 26.8305C36.6625 26.8696 36.5793 26.8881 36.4977 26.8881Z" fill="#CCD1D9"/>
<path d="M44.1126 38.5851C42.9125 38.5851 41.9365 37.6091 41.9365 36.409C41.9365 35.7883 42.5632 32.0547 44.1126 32.0547C45.6619 32.0547 46.2886 35.7883 46.2886 36.409C46.2886 37.6091 45.3127 38.5851 44.1126 38.5851ZM44.1126 33.1547C43.6828 33.4186 43.0245 35.5119 43.0245 36.409C43.0245 37.009 43.5125 37.497 44.1126 37.497C44.7126 37.497 45.2006 37.009 45.2006 36.409C45.2006 35.5119 44.5423 33.4186 44.1126 33.1547Z" fill="#A0D468"/>
<path d="M44.1126 40.7587C43.8118 40.7587 43.5686 40.5155 43.5686 40.2147V36.4082C43.5686 36.1074 43.8118 35.8642 44.1126 35.8642C44.4135 35.8642 44.6566 36.1074 44.6566 36.4082V40.2147C44.6566 40.5155 44.4135 40.7587 44.1126 40.7587Z" fill="#965353"/>
<path d="M25.6162 38.5851C24.4161 38.5851 23.4402 37.6091 23.4402 36.409C23.4402 35.7883 24.0669 32.0547 25.6162 32.0547C27.1656 32.0547 27.7923 35.7883 27.7923 36.409C27.7923 37.6091 26.8163 38.5851 25.6162 38.5851ZM25.6162 33.1547C25.1865 33.4186 24.5282 35.5119 24.5282 36.409C24.5282 37.009 25.0162 37.497 25.6162 37.497C26.2163 37.497 26.7043 37.009 26.7043 36.409C26.7043 35.5119 26.046 33.4186 25.6162 33.1547Z" fill="#A0D468"/>
<path d="M25.6163 40.7587C25.3154 40.7587 25.0723 40.5155 25.0723 40.2147V36.4082C25.0723 36.1074 25.3154 35.8642 25.6163 35.8642C25.9171 35.8642 26.1603 36.1074 26.1603 36.4082V40.2147C26.1603 40.5155 25.9171 40.7587 25.6163 40.7587Z" fill="#965353"/>
<defs>
<linearGradient id="paint0_linear_1_2570" x1="30" y1="0" x2="30" y2="60" gradientUnits="userSpaceOnUse">
<stop stop-color="#F8F8F8"/>
<stop offset="1" stop-color="#F8F8F8" stop-opacity="0"/>
</linearGradient>
</defs>
</svg>
