<svg width="34" height="33" viewBox="0 0 34 33" fill="none" xmlns="http://www.w3.org/2000/svg">
<path d="M33.7287 21.2166V23.9366L16.8643 32.0968V29.3768L33.7287 21.2166Z" fill="#844747"/>
<path d="M16.8644 29.3768V32.0968L0 23.9366V21.2166L16.8644 29.3768Z" fill="#965353"/>
<path d="M9.18305 16.777C9.22657 17.0327 9.24833 17.2503 9.24833 17.408C9.24833 18.3111 8.51935 19.0401 7.61629 19.0401C7.007 19.0401 6.4793 18.7082 6.20186 18.2186C6.06585 17.9793 5.98425 17.7018 5.98425 17.408C5.98425 16.505 6.71323 13.5999 7.61629 13.5999C8.36159 13.5999 8.9872 15.5747 9.18305 16.777Z" fill="#A0D468"/>
<path d="M22.3046 2.72007L16.8644 5.44013L11.4243 2.72007L16.8644 0L22.3046 2.72007Z" fill="#CCD1D9"/>
<path d="M11.4243 21.2167V15.6895V2.72021L16.8644 5.44028V23.9367L11.4243 21.2167Z" fill="#F5F7FA"/>
<path d="M22.3044 15.6895V21.2167L16.8643 23.9367V5.44028L22.3044 2.72021V15.6895Z" fill="#E6E9ED"/>
<path d="M26.1126 13.5999C27.0157 13.5999 27.7447 16.505 27.7447 17.408C27.7447 17.7018 27.6631 17.9793 27.5271 18.2186C27.2496 18.7082 26.7219 19.0401 26.1126 19.0401C25.2096 19.0401 24.4806 18.3111 24.4806 17.408C24.4806 17.2503 24.5024 17.0272 24.5513 16.7715C24.7417 15.5693 25.3673 13.5999 26.1126 13.5999Z" fill="#A0D468"/>
<path d="M7.61618 19.0405C8.51925 19.0405 9.24822 18.3116 9.24822 17.4085C9.24822 17.2507 9.22646 17.0331 9.18294 16.7774L11.4243 15.6894V21.2166L16.8644 23.9367L22.3045 21.2166V15.6894L24.5404 16.772H24.5513C24.5024 17.0277 24.4806 17.2507 24.4806 17.4085C24.4806 18.3116 25.2096 19.0405 26.1126 19.0405C26.7219 19.0405 27.2496 18.7087 27.5271 18.2191L33.7288 21.2166L16.8644 29.3768L0 21.2166L6.20175 18.2191C6.4792 18.7087 7.00689 19.0405 7.61618 19.0405Z" fill="#8CC152"/>
<path d="M22.3208 28.6502C22.0199 28.6502 21.774 28.407 21.774 28.1062C21.774 27.8054 22.0145 27.5622 22.3148 27.5622H22.3208C22.6211 27.5622 22.8648 27.8054 22.8648 28.1062C22.8648 28.407 22.6211 28.6502 22.3208 28.6502Z" fill="#773E3E"/>
<path d="M30.4811 24.7017C30.1802 24.7017 29.9343 24.4586 29.9343 24.1577C29.9343 23.8569 30.1748 23.6137 30.4751 23.6137H30.4811C30.7814 23.6137 31.0251 23.8569 31.0251 24.1577C31.0251 24.4586 30.7814 24.7017 30.4811 24.7017Z" fill="#773E3E"/>
<path d="M27.7608 26.0179C27.46 26.0179 27.2141 25.7747 27.2141 25.4739C27.2141 25.173 27.4546 24.9299 27.7549 24.9299H27.7608C28.0611 24.9299 28.3049 25.173 28.3049 25.4739C28.3049 25.7747 28.0611 26.0179 27.7608 26.0179Z" fill="#773E3E"/>
<path d="M25.041 27.3341C24.7402 27.3341 24.4943 27.0909 24.4943 26.79C24.4943 26.4892 24.7347 26.246 25.035 26.246H25.041C25.3413 26.246 25.585 26.4892 25.585 26.79C25.585 27.0909 25.3413 27.3341 25.041 27.3341Z" fill="#773E3E"/>
<path d="M19.6008 29.9664C19.3 29.9664 19.0541 29.7232 19.0541 29.4224C19.0541 29.1215 19.2945 28.8784 19.5948 28.8784H19.6008C19.9011 28.8784 20.1448 29.1215 20.1448 29.4224C20.1448 29.7232 19.9011 29.9664 19.6008 29.9664Z" fill="#773E3E"/>
<path d="M11.4407 28.6502C11.1398 28.6502 10.8939 28.407 10.8939 28.1062C10.8939 27.8054 11.1344 27.5622 11.4347 27.5622H11.4407C11.7409 27.5622 11.9847 27.8054 11.9847 28.1062C11.9847 28.407 11.7409 28.6502 11.4407 28.6502Z" fill="#844747"/>
<path d="M3.28038 24.7017C2.97954 24.7017 2.73364 24.4586 2.73364 24.1577C2.73364 23.8569 2.9741 23.6137 3.27439 23.6137H3.28038C3.58067 23.6137 3.82439 23.8569 3.82439 24.1577C3.82439 24.4586 3.58067 24.7017 3.28038 24.7017Z" fill="#844747"/>
<path d="M6.00059 26.0179C5.69975 26.0179 5.45386 25.7747 5.45386 25.4739C5.45386 25.173 5.69431 24.9299 5.99461 24.9299H6.00059C6.30089 24.9299 6.5446 25.173 6.5446 25.4739C6.5446 25.7747 6.30089 26.0179 6.00059 26.0179Z" fill="#844747"/>
<path d="M8.72044 27.3341C8.4196 27.3341 8.17371 27.0909 8.17371 26.79C8.17371 26.4892 8.41416 26.246 8.71445 26.246H8.72044C9.02074 26.246 9.26445 26.4892 9.26445 26.79C9.26445 27.0909 9.02074 27.3341 8.72044 27.3341Z" fill="#844747"/>
<path d="M14.1606 29.9664C13.8598 29.9664 13.6139 29.7232 13.6139 29.4224C13.6139 29.1215 13.8543 28.8784 14.1546 28.8784H14.1606C14.4609 28.8784 14.7046 29.1215 14.7046 29.4224C14.7046 29.7232 14.4609 29.9664 14.1606 29.9664Z" fill="#844747"/>
<path d="M15.2312 20.9444C15.1496 20.9444 15.0664 20.9259 14.9886 20.8873L12.812 19.7987C12.5432 19.6643 12.4344 19.3374 12.5688 19.0686C12.7037 18.7999 13.0301 18.6922 13.2989 18.8255L15.4755 19.914C15.7442 20.0484 15.853 20.3754 15.7186 20.6441C15.6229 20.8345 15.4309 20.9444 15.2312 20.9444Z" fill="#CCD1D9"/>
<path d="M15.2312 18.7682C15.1496 18.7682 15.0664 18.7497 14.9886 18.7111L12.812 17.6225C12.5432 17.4882 12.4344 17.1612 12.5688 16.8925C12.7037 16.6237 13.0301 16.516 13.2989 16.6493L15.4755 17.7379C15.7442 17.8722 15.853 18.1992 15.7186 18.4679C15.6229 18.6583 15.4309 18.7682 15.2312 18.7682Z" fill="#CCD1D9"/>
<path d="M15.2312 16.5923C15.1496 16.5923 15.0664 16.5738 14.9886 16.5352L12.812 15.4466C12.5432 15.3122 12.4344 14.9853 12.5688 14.7165C12.7037 14.4478 13.0301 14.3395 13.2989 14.4734L15.4755 15.5619C15.7442 15.6963 15.853 16.0233 15.7186 16.292C15.6229 16.4824 15.4309 16.5923 15.2312 16.5923Z" fill="#CCD1D9"/>
<path d="M15.2312 14.416C15.1496 14.416 15.0664 14.3975 14.9886 14.3588L12.812 13.2703C12.5432 13.1359 12.4344 12.809 12.5688 12.5402C12.7037 12.2709 13.0301 12.1638 13.2989 12.297L15.4755 13.3856C15.7442 13.52 15.853 13.8469 15.7186 14.1157C15.6229 14.3061 15.4309 14.416 15.2312 14.416Z" fill="#CCD1D9"/>
<path d="M15.2312 12.2397C15.1496 12.2397 15.0664 12.2212 14.9886 12.1826L12.812 11.094C12.5432 10.9596 12.4344 10.6327 12.5688 10.3639C12.7037 10.0952 13.0301 9.98748 13.2989 10.1208L15.4755 11.2093C15.7442 11.3437 15.853 11.6707 15.7186 11.9394C15.6229 12.1298 15.4309 12.2397 15.2312 12.2397Z" fill="#CCD1D9"/>
<path d="M15.2312 10.0638C15.1496 10.0638 15.0664 10.0453 14.9886 10.0066L12.812 8.91806C12.5432 8.78369 12.4344 8.45674 12.5688 8.188C12.7037 7.91926 13.0301 7.811 13.2989 7.94482L15.4755 9.03339C15.7442 9.16777 15.853 9.49472 15.7186 9.76346C15.6229 9.95386 15.4309 10.0638 15.2312 10.0638Z" fill="#CCD1D9"/>
<path d="M15.2312 7.88758C15.1496 7.88758 15.0664 7.86908 14.9886 7.83046L12.812 6.74189C12.5432 6.60751 12.4344 6.28056 12.5688 6.01182C12.7037 5.74308 13.0301 5.63482 13.2989 5.76865L15.4755 6.85722C15.7442 6.99159 15.853 7.31854 15.7186 7.58728C15.6229 7.77769 15.4309 7.88758 15.2312 7.88758Z" fill="#CCD1D9"/>
<path d="M18.4977 20.945C18.298 20.945 18.106 20.8351 18.0102 20.6441C17.8758 20.3754 17.9846 20.0484 18.2534 19.914L20.43 18.8255C20.6987 18.6922 21.0257 18.7999 21.1601 19.0686C21.2944 19.3374 21.1856 19.6643 20.9169 19.7987L18.7403 20.8873C18.6625 20.9265 18.5793 20.945 18.4977 20.945Z" fill="#CCD1D9"/>
<path d="M18.4977 18.7688C18.298 18.7688 18.106 18.6589 18.0102 18.4679C17.8758 18.1992 17.9846 17.8722 18.2534 17.7379L20.43 16.6493C20.6987 16.516 21.0257 16.6237 21.1601 16.8925C21.2944 17.1612 21.1856 17.4882 20.9169 17.6225L18.7403 18.7111C18.6625 18.7503 18.5793 18.7688 18.4977 18.7688Z" fill="#CCD1D9"/>
<path d="M18.4977 16.5928C18.298 16.5928 18.106 16.4829 18.0102 16.292C17.8758 16.0233 17.9846 15.6963 18.2534 15.5619L20.43 14.4734C20.6987 14.3395 21.0257 14.4478 21.1601 14.7165C21.2944 14.9853 21.1856 15.3122 20.9169 15.4466L18.7403 16.5352C18.6625 16.5743 18.5793 16.5928 18.4977 16.5928Z" fill="#CCD1D9"/>
<path d="M18.4977 14.4165C18.298 14.4165 18.106 14.3066 18.0102 14.1157C17.8758 13.8469 17.9846 13.52 18.2534 13.3856L20.43 12.297C20.6987 12.1638 21.0257 12.2709 21.1601 12.5402C21.2944 12.809 21.1856 13.1359 20.9169 13.2703L18.7403 14.3588C18.6625 14.398 18.5793 14.4165 18.4977 14.4165Z" fill="#CCD1D9"/>
<path d="M18.4977 12.2402C18.298 12.2402 18.106 12.1303 18.0102 11.9394C17.8758 11.6707 17.9846 11.3437 18.2534 11.2093L20.43 10.1208C20.6987 9.98748 21.0257 10.0952 21.1601 10.3639C21.2944 10.6327 21.1856 10.9596 20.9169 11.094L18.7403 12.1826C18.6625 12.2217 18.5793 12.2402 18.4977 12.2402Z" fill="#CCD1D9"/>
<path d="M18.4977 10.0643C18.298 10.0643 18.106 9.95441 18.0102 9.76346C17.8758 9.49472 17.9846 9.16776 18.2534 9.03339L20.43 7.94482C20.6987 7.811 21.0257 7.91926 21.1601 8.188C21.2944 8.45674 21.1856 8.78369 20.9169 8.91806L18.7403 10.0066C18.6625 10.0458 18.5793 10.0643 18.4977 10.0643Z" fill="#CCD1D9"/>
<path d="M18.4977 7.88812C18.298 7.88812 18.106 7.77823 18.0102 7.58728C17.8758 7.31854 17.9846 6.99159 18.2534 6.85722L20.43 5.76865C20.6987 5.63482 21.0257 5.74308 21.1601 6.01182C21.2944 6.28056 21.1856 6.60751 20.9169 6.74188L18.7403 7.83045C18.6625 7.86962 18.5793 7.88812 18.4977 7.88812Z" fill="#CCD1D9"/>
<path d="M26.1126 19.5851C24.9125 19.5851 23.9365 18.6091 23.9365 17.409C23.9365 16.7883 24.5632 13.0547 26.1126 13.0547C27.6619 13.0547 28.2886 16.7883 28.2886 17.409C28.2886 18.6091 27.3127 19.5851 26.1126 19.5851ZM26.1126 14.1547C25.6828 14.4186 25.0245 16.5119 25.0245 17.409C25.0245 18.009 25.5125 18.497 26.1126 18.497C26.7126 18.497 27.2006 18.009 27.2006 17.409C27.2006 16.5119 26.5423 14.4186 26.1126 14.1547Z" fill="#A0D468"/>
<path d="M26.1126 21.7587C25.8118 21.7587 25.5686 21.5155 25.5686 21.2147V17.4082C25.5686 17.1074 25.8118 16.8642 26.1126 16.8642C26.4135 16.8642 26.6566 17.1074 26.6566 17.4082V21.2147C26.6566 21.5155 26.4135 21.7587 26.1126 21.7587Z" fill="#965353"/>
<path d="M7.61624 19.5851C6.41615 19.5851 5.44019 18.6091 5.44019 17.409C5.44019 16.7883 6.06689 13.0547 7.61624 13.0547C9.16559 13.0547 9.79229 16.7883 9.79229 17.409C9.79229 18.6091 8.81633 19.5851 7.61624 19.5851ZM7.61624 14.1547C7.18647 14.4186 6.52821 16.5119 6.52821 17.409C6.52821 18.009 7.01619 18.497 7.61624 18.497C8.21628 18.497 8.70426 18.009 8.70426 17.409C8.70426 16.5119 8.04601 14.4186 7.61624 14.1547Z" fill="#A0D468"/>
<path d="M7.61628 21.7587C7.31544 21.7587 7.07227 21.5155 7.07227 21.2147V17.4082C7.07227 17.1074 7.31544 16.8642 7.61628 16.8642C7.91712 16.8642 8.16029 17.1074 8.16029 17.4082V21.2147C8.16029 21.5155 7.91712 21.7587 7.61628 21.7587Z" fill="#965353"/>
</svg>
