<svg width="20" height="20" viewBox="0 0 20 20" fill="none" xmlns="http://www.w3.org/2000/svg">
<path opacity="0.7" d="M10 0C4.48606 0 0 4.48606 0 10C0 15.5139 4.48606 20 10 20C15.5139 20 20 15.5139 20 10C20 4.48606 15.5139 0 10 0ZM5.76923 14.5192C5.54102 14.5192 5.31794 14.4516 5.12819 14.3248C4.93844 14.198 4.79055 14.0178 4.70322 13.8069C4.61588 13.5961 4.59303 13.3641 4.63756 13.1403C4.68208 12.9165 4.79197 12.7109 4.95334 12.5495C5.11471 12.3881 5.3203 12.2782 5.54413 12.2337C5.76795 12.1892 5.99995 12.212 6.21079 12.2994C6.42163 12.3867 6.60183 12.5346 6.72862 12.7243C6.85541 12.9141 6.92308 13.1372 6.92308 13.3654C6.92308 13.6714 6.80151 13.9649 6.58512 14.1813C6.36874 14.3977 6.07525 14.5192 5.76923 14.5192ZM5.76923 11.1058C5.54102 11.1058 5.31794 11.0381 5.12819 10.9113C4.93844 10.7845 4.79055 10.6043 4.70322 10.3935C4.61588 10.1826 4.59303 9.95064 4.63756 9.72682C4.68208 9.50299 4.79197 9.2974 4.95334 9.13603C5.11471 8.97466 5.3203 8.86477 5.54413 8.82025C5.76795 8.77573 5.99995 8.79858 6.21079 8.88591C6.42163 8.97324 6.60183 9.12113 6.72862 9.31088C6.85541 9.50063 6.92308 9.72371 6.92308 9.95192C6.92308 10.2579 6.80151 10.5514 6.58512 10.7678C6.36874 10.9842 6.07525 11.1058 5.76923 11.1058ZM5.76923 7.59615C5.54102 7.59615 5.31794 7.52848 5.12819 7.4017C4.93844 7.27491 4.79055 7.0947 4.70322 6.88387C4.61588 6.67303 4.59303 6.44103 4.63756 6.2172C4.68208 5.99338 4.79197 5.78778 4.95334 5.62642C5.11471 5.46505 5.3203 5.35515 5.54413 5.31063C5.76795 5.26611 5.99995 5.28896 6.21079 5.37629C6.42163 5.46362 6.60183 5.61152 6.72862 5.80127C6.85541 5.99101 6.92308 6.2141 6.92308 6.44231C6.92308 6.74833 6.80151 7.04181 6.58512 7.2582C6.36874 7.47459 6.07525 7.59615 5.76923 7.59615ZM14.6154 14.0865H8.46154C8.25753 14.0865 8.06187 14.0055 7.91761 13.8612C7.77335 13.717 7.69231 13.5213 7.69231 13.3173C7.69231 13.1133 7.77335 12.9176 7.91761 12.7734C8.06187 12.6291 8.25753 12.5481 8.46154 12.5481H14.6154C14.8194 12.5481 15.0151 12.6291 15.1593 12.7734C15.3036 12.9176 15.3846 13.1133 15.3846 13.3173C15.3846 13.5213 15.3036 13.717 15.1593 13.8612C15.0151 14.0055 14.8194 14.0865 14.6154 14.0865ZM14.6154 10.6731H8.46154C8.25753 10.6731 8.06187 10.592 7.91761 10.4478C7.77335 10.3035 7.69231 10.1079 7.69231 9.90385C7.69231 9.69983 7.77335 9.50418 7.91761 9.35992C8.06187 9.21566 8.25753 9.13462 8.46154 9.13462H14.6154C14.8194 9.13462 15.0151 9.21566 15.1593 9.35992C15.3036 9.50418 15.3846 9.69983 15.3846 9.90385C15.3846 10.1079 15.3036 10.3035 15.1593 10.4478C15.0151 10.592 14.8194 10.6731 14.6154 10.6731ZM14.6154 7.21154H8.46154C8.25753 7.21154 8.06187 7.13049 7.91761 6.98624C7.77335 6.84198 7.69231 6.64632 7.69231 6.44231C7.69231 6.2383 7.77335 6.04264 7.91761 5.89838C8.06187 5.75412 8.25753 5.67308 8.46154 5.67308H14.6154C14.8194 5.67308 15.0151 5.75412 15.1593 5.89838C15.3036 6.04264 15.3846 6.2383 15.3846 6.44231C15.3846 6.64632 15.3036 6.84198 15.1593 6.98624C15.0151 7.13049 14.8194 7.21154 14.6154 7.21154Z" fill="#F8F8F8"/>
</svg>
