<svg width="30" height="30" viewBox="0 0 30 30" fill="none" xmlns="http://www.w3.org/2000/svg">
<path d="M6.58963 22.8068C4.18157 20.4416 2.70916 17.3766 2.3673 14.0704C1.08746 15.6883 0.39351 17.6726 0.396709 19.7551C0.398861 21.1097 0.703729 22.4561 1.28142 23.6736L0.0902117 27.1403C-0.114565 27.7363 0.035019 28.3833 0.480632 28.829C0.794224 29.1426 1.20768 29.3096 1.63287 29.3096C1.81177 29.3096 1.99276 29.2801 2.16927 29.2194L5.63606 28.0282C6.85362 28.6059 8.20005 28.9107 9.55457 28.9129C11.6779 28.9157 13.6987 28.1953 15.3333 26.8676C12.0466 26.5702 8.98066 25.1552 6.58963 22.8068Z" fill="#159DFF"/>
<path d="M29.67 23.1374L27.9405 18.1042C28.7742 16.4 29.2147 14.5048 29.2177 12.5978C29.2228 9.28197 27.94 6.14681 25.6053 3.76986C23.2703 1.39238 20.1587 0.0541478 16.8436 0.00163035C13.4061 -0.0527481 10.1751 1.25478 7.74593 3.68384C5.31681 6.11296 4.00906 9.34397 4.06349 12.7816C4.11601 16.0966 5.45424 19.2083 7.8316 21.5434C10.2039 23.8734 13.3311 25.156 16.6398 25.1558C16.6463 25.1558 16.6532 25.1558 16.6596 25.1558C18.5666 25.1529 20.4619 24.7123 22.1661 23.8787L27.1994 25.6082C27.4091 25.6803 27.6242 25.7154 27.8367 25.7154C28.342 25.7154 28.8333 25.5169 29.2061 25.1441C29.7356 24.6146 29.9133 23.8457 29.67 23.1374ZM17.8549 16.9427H11.3602C10.8707 16.9427 10.4739 16.5458 10.4739 16.0564C10.4739 15.567 10.8707 15.1702 11.3602 15.1702H17.8549C18.3443 15.1702 18.7411 15.567 18.7411 16.0564C18.7411 16.5459 18.3444 16.9427 17.8549 16.9427ZM21.9195 13.2979H11.3602C10.8707 13.2979 10.474 12.9011 10.474 12.4117C10.474 11.9223 10.8708 11.5254 11.3602 11.5254H21.9195C22.409 11.5254 22.8058 11.9223 22.8058 12.4117C22.8058 12.9011 22.409 13.2979 21.9195 13.2979ZM21.9195 9.65303H11.3602C10.8707 9.65303 10.474 9.25621 10.474 8.7668C10.474 8.27734 10.8708 7.88058 11.3602 7.88058H21.9195C22.409 7.88058 22.8058 8.2774 22.8058 8.7668C22.8058 9.25621 22.409 9.65303 21.9195 9.65303Z" fill="#159DFF"/>
</svg>
