<svg width="20" height="20" viewBox="0 0 20 20" fill="none" xmlns="http://www.w3.org/2000/svg">
<g opacity="0.3">
<path d="M4.426 15.3196C2.8086 13.731 1.81964 11.6724 1.59003 9.45172C0.730406 10.5384 0.264306 11.8712 0.266454 13.2699C0.267899 14.1797 0.472668 15.0841 0.860681 15.9019L0.0605918 18.2303C-0.0769492 18.6306 0.0235209 19.0652 0.322822 19.3645C0.53345 19.5751 0.811149 19.6873 1.09674 19.6873C1.2169 19.6873 1.33846 19.6675 1.45702 19.6267L3.78553 18.8266C4.60331 19.2146 5.50766 19.4194 6.41744 19.4208C7.84359 19.4228 9.20092 18.9389 10.2988 18.0471C8.09125 17.8473 6.03197 16.8969 4.426 15.3196Z" fill="#001829"/>
<path d="M19.9282 15.5405L18.7665 12.1599C19.3265 11.0153 19.6224 9.74229 19.6244 8.46145C19.6278 6.23435 18.7662 4.12857 17.1981 2.53207C15.6297 0.93521 13.5398 0.036369 11.3132 0.00109504C9.00433 -0.0354289 6.83415 0.842787 5.2026 2.47429C3.57106 4.10584 2.69268 6.27599 2.72925 8.58493C2.76452 10.8115 3.66336 12.9015 5.26014 14.4699C6.85352 16.0349 8.95394 16.8963 11.1763 16.8962C11.1807 16.8962 11.1853 16.8962 11.1896 16.8962C12.4704 16.8942 13.7434 16.5983 14.8881 16.0384L18.2687 17.2C18.4096 17.2484 18.554 17.272 18.6968 17.272C19.0362 17.272 19.3662 17.1388 19.6166 16.8884C19.9722 16.5327 20.0916 16.0162 19.9282 15.5405ZM11.9924 11.3797H7.63014C7.30138 11.3797 7.03489 11.1132 7.03489 10.7845C7.03489 10.4557 7.30142 10.1892 7.63014 10.1892H11.9924C12.3211 10.1892 12.5876 10.4558 12.5876 10.7845C12.5876 11.1132 12.3212 11.3797 11.9924 11.3797ZM14.7225 8.93169H7.63018C7.30142 8.93169 7.03493 8.66516 7.03493 8.33645C7.03493 8.00773 7.30146 7.7412 7.63018 7.7412H14.7225C15.0512 7.7412 15.3177 8.00773 15.3177 8.33645C15.3177 8.66516 15.0512 8.93169 14.7225 8.93169ZM14.7225 6.48357H7.63018C7.30142 6.48357 7.03493 6.21704 7.03493 5.88833C7.03493 5.55957 7.30146 5.29308 7.63018 5.29308H14.7225C15.0512 5.29308 15.3177 5.55961 15.3177 5.88833C15.3177 6.21704 15.0512 6.48357 14.7225 6.48357Z" fill="#001829"/>
</g>
</svg>
