<svg width="11" height="13" viewBox="0 0 11 13" fill="none" xmlns="http://www.w3.org/2000/svg">
<path d="M5.25718 3.75452C4.84319 3.75452 4.50623 4.09148 4.50623 4.50547V5.25642H6.00813V4.50547C6.00813 4.09148 5.67117 3.75452 5.25718 3.75452Z" fill="#FC6C7D"/>
<path d="M10.0872 0.0737936C9.82644 -0.0512401 9.51773 -0.0153117 9.29181 0.165832C8.35354 0.920095 6.66462 0.919719 5.72776 0.166208C5.45274 -0.0552765 5.06115 -0.054901 4.78613 0.165832C3.84824 0.920071 2.15859 0.919696 1.22208 0.166184C0.996539 -0.0153117 0.686794 -0.0512636 0.427081 0.0737702C0.166477 0.198452 0.00037545 0.462084 0.00037545 0.751036L0 6.75867C0 9.11236 1.88691 11.0662 5.04721 11.9855C5.11578 12.0053 5.18618 12.0152 5.25698 12.0152C5.32771 12.0152 5.39816 12.0053 5.46673 11.9855C8.62707 11.0662 10.5136 9.11274 10.5136 6.75867V0.751036C10.5136 0.462084 10.3479 0.198452 10.0872 0.0737936ZM7.50982 7.50943C7.50982 7.92433 7.17362 8.26038 6.75886 8.26038H3.75505C3.34029 8.26038 3.0041 7.92433 3.0041 7.50943V6.00752C3.0041 5.59281 3.34029 5.25657 3.75505 5.25657V4.50562C3.75505 3.67767 4.42863 3.00371 5.25696 3.00371C6.08528 3.00371 6.75886 3.67767 6.75886 4.50562V5.25657C7.17362 5.25657 7.50982 5.59281 7.50982 6.00752V7.50943Z" fill="#FC6C7D"/>
<path d="M5.25695 6.38342C5.04959 6.38342 4.88147 6.55154 4.88147 6.7589C4.88147 6.96644 5.04959 7.13438 5.25695 7.13438C5.4643 7.13438 5.63242 6.96644 5.63242 6.7589C5.63242 6.55154 5.4643 6.38342 5.25695 6.38342Z" fill="#FC6C7D"/>
</svg>
