<svg width="17" height="17" viewBox="0 0 17 17" fill="none" xmlns="http://www.w3.org/2000/svg">
<g opacity="0.5">
<path d="M7.13634 1C5.92269 1 4.73629 1.35989 3.72717 2.03416C2.71806 2.70843 1.93155 3.66679 1.4671 4.78806C1.00266 5.90933 0.881139 7.14314 1.11791 8.33348C1.35468 9.52381 1.93911 10.6172 2.79729 11.4754C3.65548 12.3336 4.74887 12.918 5.9392 13.1548C7.12953 13.3915 8.36335 13.27 9.48461 12.8056C10.6059 12.3411 11.5642 11.5546 12.2385 10.5455C12.9128 9.53639 13.2727 8.34999 13.2727 7.13634C13.2726 5.50891 12.626 3.94817 11.4753 2.79741C10.3245 1.64664 8.76377 1.0001 7.13634 1V1Z" stroke="#001829" stroke-miterlimit="10"/>
<path d="M11.7146 11.7145L16.0002 16" stroke="#001829" stroke-miterlimit="10" stroke-linecap="round"/>
</g>
</svg>
