<svg width="20" height="20" viewBox="0 0 20 20" fill="none" xmlns="http://www.w3.org/2000/svg">
<g opacity="0.3">
<path d="M10.0006 12.087C8.84797 12.087 7.91361 11.1526 7.91361 10C7.91361 8.84745 8.84797 7.91309 10.0006 7.91309C11.1532 7.91309 12.0875 8.84745 12.0875 10C12.0875 11.1526 11.1532 12.087 10.0006 12.087Z" fill="#001829"/>
<path d="M0.679289 11.913L0.699724 11.8965L2.0719 10.8204C2.15879 10.7517 2.22814 10.6633 2.27425 10.5626C2.32035 10.4618 2.3419 10.3516 2.33712 10.2409V9.73826C2.34147 9.62827 2.31966 9.51881 2.27348 9.41889C2.2273 9.31897 2.15806 9.23143 2.07146 9.16348L0.699724 8.08696L0.679289 8.07043C0.467735 7.8942 0.325768 7.64846 0.278772 7.37716C0.231777 7.10586 0.282816 6.82669 0.422768 6.58957L2.27973 3.37652C2.28186 3.37349 2.28375 3.37029 2.28538 3.36696C2.42608 3.13311 2.64424 2.95594 2.90197 2.86619C3.1597 2.77644 3.44073 2.77979 3.69625 2.87565L3.71146 2.8813L5.32451 3.53043C5.42632 3.5716 5.53645 3.58798 5.64583 3.57823C5.75522 3.56848 5.86072 3.53287 5.95364 3.47435C6.09625 3.38449 6.24117 3.29957 6.38842 3.21957C6.48389 3.1678 6.56586 3.09431 6.62771 3.00505C6.68956 2.91578 6.72957 2.81322 6.74451 2.70565L6.98755 0.984348L6.99277 0.953043C7.04568 0.686434 7.18875 0.446162 7.39793 0.272606C7.60712 0.0990501 7.86967 0.00278917 8.14146 0H11.8597C12.1353 0.000881968 12.4018 0.0990072 12.6122 0.277089C12.8226 0.45517 12.9633 0.701782 13.0097 0.973478L13.0136 0.997826L13.2558 2.72261C13.2707 2.82987 13.3104 2.93218 13.3717 3.0214C13.4331 3.11062 13.5144 3.18428 13.6093 3.23652C13.757 3.31606 13.902 3.40045 14.0441 3.48957C14.1368 3.54773 14.2421 3.58307 14.3511 3.59267C14.4602 3.60226 14.57 3.58585 14.6715 3.54478L16.2858 2.89261L16.301 2.88652C16.5569 2.79055 16.8383 2.78733 17.0964 2.87741C17.3544 2.9675 17.5727 3.14519 17.7132 3.37957L17.7189 3.38913L19.5784 6.60435C19.7186 6.84171 19.7697 7.12119 19.7227 7.39281C19.6757 7.66444 19.5337 7.91048 19.3219 8.08696L19.3015 8.10348L17.9293 9.17957C17.8424 9.24831 17.773 9.33668 17.7269 9.43743C17.6808 9.53818 17.6593 9.64844 17.6641 9.75913V10.2617C17.6597 10.3717 17.6815 10.4812 17.7277 10.5811C17.7739 10.681 17.8431 10.7686 17.9297 10.8365L19.3015 11.913L19.3219 11.9296C19.5335 12.1058 19.6754 12.3515 19.7224 12.6228C19.7694 12.8941 19.7184 13.1733 19.5784 13.4104L17.7215 16.6235C17.7193 16.6265 17.7174 16.6297 17.7158 16.633C17.5751 16.8669 17.3569 17.0441 17.0992 17.1338C16.8415 17.2236 16.5605 17.2202 16.3049 17.1243L16.2897 17.1187L14.678 16.4696C14.5762 16.4284 14.466 16.412 14.3567 16.4218C14.2473 16.4315 14.1418 16.4671 14.0489 16.5257C13.9062 16.6158 13.7613 16.7007 13.6141 16.7804C13.5186 16.8322 13.4366 16.9057 13.3748 16.995C13.3129 17.0842 13.2729 17.1868 13.258 17.2943L13.0162 19.0157L13.011 19.047C12.958 19.314 12.8146 19.5546 12.6049 19.7282C12.3951 19.9018 12.132 19.9978 11.8597 20H8.14146C7.86584 19.9991 7.59937 19.901 7.38899 19.7229C7.17862 19.5448 7.03784 19.2982 6.99146 19.0265L6.98755 19.0022L6.74538 17.2774C6.73029 17.1699 6.69027 17.0675 6.62851 16.9782C6.56676 16.889 6.48498 16.8155 6.38972 16.7635C6.24103 16.6835 6.09581 16.5987 5.95494 16.5104C5.86219 16.4523 5.75695 16.4169 5.64789 16.4073C5.53883 16.3977 5.42904 16.4141 5.32755 16.4552L3.7132 17.1052L3.69799 17.1113C3.44212 17.2074 3.16062 17.2108 2.90256 17.1207C2.6445 17.0306 2.42624 16.8528 2.28581 16.6183C2.28409 16.615 2.2822 16.6118 2.28016 16.6087L0.423203 13.3961C0.282787 13.1588 0.231441 12.8792 0.278364 12.6074C0.325289 12.3357 0.467413 12.0895 0.679289 11.913ZM6.52625 10.1635C6.55791 10.8368 6.78452 11.4864 7.17852 12.0333C7.57251 12.5802 8.11693 13.0008 8.74555 13.244C9.37418 13.4872 10.0599 13.5426 10.7194 13.4033C11.3789 13.264 11.9837 12.9361 12.4603 12.4594C12.9369 11.9828 13.2647 11.3779 13.4039 10.7184C13.5431 10.0589 13.4877 9.37319 13.2444 8.74459C13.0011 8.116 12.5804 7.57163 12.0335 7.1777C11.4866 6.78376 10.8369 6.55723 10.1636 6.52565C9.68026 6.50437 9.19775 6.5839 8.74678 6.7592C8.29581 6.93449 7.88625 7.20171 7.54414 7.54386C7.20203 7.88601 6.93486 8.2956 6.75962 8.74659C6.58438 9.19758 6.50491 9.68011 6.52625 10.1635Z" fill="#001829"/>
</g>
</svg>
