<svg width="14" height="13" viewBox="0 0 14 13" fill="none" xmlns="http://www.w3.org/2000/svg">
<path d="M6.10756 1.76535C6.4775 1.03357 7.5225 1.03356 7.89244 1.76535L8.92784 3.81349C9.07521 4.10499 9.35564 4.30615 9.679 4.3523L11.956 4.67726C12.7833 4.79534 13.1094 5.81594 12.5039 6.39186L10.8885 7.92806C10.6459 8.15887 10.5348 8.49583 10.5928 8.8257L10.9779 11.0184C11.1209 11.8322 10.2712 12.4584 9.53621 12.081L7.45679 11.0132C7.17006 10.866 6.82994 10.866 6.54321 11.0132L4.46379 12.081C3.72878 12.4584 2.87914 11.8322 3.02208 11.0184L3.40723 8.8257C3.46518 8.49583 3.35414 8.15887 3.11145 7.92806L1.49615 6.39186C0.890566 5.81593 1.21667 4.79534 2.044 4.67726L4.321 4.3523C4.64436 4.30615 4.92479 4.10499 5.07216 3.81349L6.10756 1.76535Z" fill="#FF9A3D" stroke="#FF9A3D" stroke-linecap="round" stroke-linejoin="round"/>
</svg>
